<mxfile host="Electron" agent="Mozilla/5.0 (X11; Linux x86_64) AppleWebKit/537.36 (KHTML, like Gecko) draw.io/26.1.1 Chrome/132.0.6834.210 Electron/34.3.3 Safari/537.36" version="26.1.1">
  <diagram name="PÃ¡gina-1" id="L0Rs0itexEbBs3ounPCT">
    <mxGraphModel dx="1301" dy="708" grid="0" gridSize="10" guides="1" tooltips="1" connect="1" arrows="1" fold="1" page="1" pageScale="1" pageWidth="16000" pageHeight="12000" math="0" shadow="0">
      <root>
        <mxCell id="0" />
        <mxCell id="1" parent="0" />
        <mxCell id="iTf2nIuXYR94NIQKGG5_-5" value="&lt;div style=&quot;text-align: justify;&quot;&gt;&lt;span style=&quot;font-size: 60px; background-color: transparent; color: light-dark(rgb(0, 0, 0), rgb(255, 255, 255));&quot;&gt;&lt;b style=&quot;&quot;&gt;&lt;font&gt;a&lt;/font&gt;&lt;/b&gt;&lt;/span&gt;&lt;/div&gt;" style="rounded=0;whiteSpace=wrap;html=1;strokeWidth=2;portConstraintRotation=0;fontFamily=Times New Roman;" parent="1" vertex="1">
          <mxGeometry x="202.5" y="40" width="280" height="160" as="geometry" />
        </mxCell>
        <mxCell id="iTf2nIuXYR94NIQKGG5_-6" value="&lt;div style=&quot;text-align: left; padding-bottom: 165px;&quot;&gt;&lt;span style=&quot;background-color: transparent; color: light-dark(rgb(0, 0, 0), rgb(255, 255, 255));&quot;&gt;&lt;font&gt;&lt;b&gt;gen&lt;/b&gt;&lt;/font&gt;&lt;/span&gt;&lt;/div&gt;&lt;div&gt;&lt;/div&gt;" style="rounded=0;whiteSpace=wrap;html=1;strokeWidth=2;portConstraintRotation=0;fontFamily=Times New Roman;fontSize=27;" parent="1" vertex="1">
          <mxGeometry x="42.5" y="40" width="80" height="200" as="geometry" />
        </mxCell>
        <mxCell id="iTf2nIuXYR94NIQKGG5_-7" value="&lt;div style=&quot;text-align: left; padding-bottom: 165px; padding-right: 0px; padding-left: 3px;&quot;&gt;&lt;b style=&quot;background-color: transparent; color: light-dark(rgb(0, 0, 0), rgb(255, 255, 255));&quot;&gt;&lt;font&gt;carga&lt;/font&gt;&lt;/b&gt;&lt;/div&gt;" style="rounded=0;whiteSpace=wrap;html=1;strokeWidth=2;portConstraintRotation=0;fontFamily=Times New Roman;fontSize=27;" parent="1" vertex="1">
          <mxGeometry x="562.5" y="40" width="80" height="200" as="geometry" />
        </mxCell>
        <mxCell id="iTf2nIuXYR94NIQKGG5_-8" value="&lt;font style=&quot;font-size: 50px;&quot;&gt;&lt;b style=&quot;&quot;&gt;f&lt;/b&gt;&lt;/font&gt;" style="rounded=0;whiteSpace=wrap;html=1;strokeWidth=2;portConstraintRotation=0;fontFamily=Times New Roman;" parent="1" vertex="1">
          <mxGeometry x="242" y="280" width="200" height="120" as="geometry" />
        </mxCell>
        <mxCell id="iTf2nIuXYR94NIQKGG5_-9" value="" style="endArrow=none;html=1;rounded=0;strokeWidth=3;" parent="1" edge="1">
          <mxGeometry width="50" height="50" relative="1" as="geometry">
            <mxPoint x="82.5" y="360" as="sourcePoint" />
            <mxPoint x="82.5" y="200" as="targetPoint" />
          </mxGeometry>
        </mxCell>
        <mxCell id="iTf2nIuXYR94NIQKGG5_-10" value="" style="endArrow=none;html=1;rounded=0;strokeWidth=3;" parent="1" edge="1">
          <mxGeometry width="50" height="50" relative="1" as="geometry">
            <mxPoint x="82.5" y="360" as="sourcePoint" />
            <mxPoint x="282.5" y="360" as="targetPoint" />
          </mxGeometry>
        </mxCell>
        <mxCell id="iTf2nIuXYR94NIQKGG5_-11" value="" style="endArrow=none;html=1;rounded=0;strokeWidth=3;" parent="1" edge="1">
          <mxGeometry width="50" height="50" relative="1" as="geometry">
            <mxPoint x="402.5" y="360" as="sourcePoint" />
            <mxPoint x="602.5" y="360" as="targetPoint" />
          </mxGeometry>
        </mxCell>
        <mxCell id="iTf2nIuXYR94NIQKGG5_-12" value="" style="endArrow=none;html=1;rounded=0;strokeWidth=3;" parent="1" edge="1">
          <mxGeometry width="50" height="50" relative="1" as="geometry">
            <mxPoint x="532.5" y="150" as="sourcePoint" />
            <mxPoint x="532.5" y="80" as="targetPoint" />
            <Array as="points">
              <mxPoint x="532.5" y="140" />
            </Array>
          </mxGeometry>
        </mxCell>
        <mxCell id="iTf2nIuXYR94NIQKGG5_-13" value="" style="endArrow=none;html=1;rounded=0;strokeWidth=3;" parent="1" edge="1">
          <mxGeometry width="50" height="50" relative="1" as="geometry">
            <mxPoint x="102.5" y="80" as="sourcePoint" />
            <mxPoint x="282.5" y="80" as="targetPoint" />
          </mxGeometry>
        </mxCell>
        <mxCell id="iTf2nIuXYR94NIQKGG5_-14" value="" style="endArrow=none;html=1;rounded=0;strokeWidth=3;exitX=0;exitY=0.5;exitDx=0;exitDy=0;exitPerimeter=0;" parent="1" edge="1">
          <mxGeometry width="50" height="50" relative="1" as="geometry">
            <mxPoint x="402.4999999999999" y="80" as="sourcePoint" />
            <mxPoint x="602.5" y="80" as="targetPoint" />
          </mxGeometry>
        </mxCell>
        <mxCell id="iTf2nIuXYR94NIQKGG5_-15" value="" style="curved=1;endArrow=none;html=1;rounded=0;endFill=0;strokeWidth=3;" parent="1" edge="1">
          <mxGeometry width="50" height="50" relative="1" as="geometry">
            <mxPoint x="532.5" y="171.25" as="sourcePoint" />
            <mxPoint x="532.5" y="151.25" as="targetPoint" />
            <Array as="points">
              <mxPoint x="522.5" y="171.25" />
              <mxPoint x="522.5" y="151.25" />
            </Array>
          </mxGeometry>
        </mxCell>
        <mxCell id="iTf2nIuXYR94NIQKGG5_-16" value="" style="endArrow=none;html=1;rounded=0;strokeWidth=3;" parent="1" edge="1">
          <mxGeometry width="50" height="50" relative="1" as="geometry">
            <mxPoint x="532.5" y="320" as="sourcePoint" />
            <mxPoint x="532.5" y="170" as="targetPoint" />
            <Array as="points" />
          </mxGeometry>
        </mxCell>
        <mxCell id="iTf2nIuXYR94NIQKGG5_-17" value="" style="endArrow=none;html=1;rounded=0;strokeWidth=3;" parent="1" edge="1">
          <mxGeometry width="50" height="50" relative="1" as="geometry">
            <mxPoint x="402.5" y="160" as="sourcePoint" />
            <mxPoint x="602.5" y="160" as="targetPoint" />
          </mxGeometry>
        </mxCell>
        <mxCell id="iTf2nIuXYR94NIQKGG5_-18" value="" style="endArrow=none;html=1;rounded=0;entryX=1;entryY=0.5;entryDx=0;entryDy=0;entryPerimeter=0;strokeWidth=3;" parent="1" target="iTf2nIuXYR94NIQKGG5_-26" edge="1">
          <mxGeometry width="50" height="50" relative="1" as="geometry">
            <mxPoint x="602.5" y="360" as="sourcePoint" />
            <mxPoint x="602.5" y="200" as="targetPoint" />
          </mxGeometry>
        </mxCell>
        <mxCell id="iTf2nIuXYR94NIQKGG5_-19" value="" style="endArrow=none;html=1;rounded=0;strokeWidth=3;" parent="1" edge="1">
          <mxGeometry width="50" height="50" relative="1" as="geometry">
            <mxPoint x="402.5" y="320" as="sourcePoint" />
            <mxPoint x="532.5" y="320" as="targetPoint" />
          </mxGeometry>
        </mxCell>
        <mxCell id="iTf2nIuXYR94NIQKGG5_-20" value="" style="endArrow=none;html=1;rounded=0;strokeWidth=3;" parent="1" edge="1">
          <mxGeometry width="50" height="50" relative="1" as="geometry">
            <mxPoint x="162.5" y="160" as="sourcePoint" />
            <mxPoint x="282.5" y="160" as="targetPoint" />
          </mxGeometry>
        </mxCell>
        <mxCell id="iTf2nIuXYR94NIQKGG5_-21" value="" style="endArrow=none;html=1;rounded=0;strokeWidth=3;" parent="1" edge="1">
          <mxGeometry width="50" height="50" relative="1" as="geometry">
            <mxPoint x="162.5" y="320" as="sourcePoint" />
            <mxPoint x="162.5" y="160" as="targetPoint" />
          </mxGeometry>
        </mxCell>
        <mxCell id="iTf2nIuXYR94NIQKGG5_-22" value="" style="endArrow=none;html=1;rounded=0;strokeWidth=3;" parent="1" edge="1">
          <mxGeometry width="50" height="50" relative="1" as="geometry">
            <mxPoint x="162.5" y="320" as="sourcePoint" />
            <mxPoint x="282.5" y="320" as="targetPoint" />
          </mxGeometry>
        </mxCell>
        <mxCell id="iTf2nIuXYR94NIQKGG5_-23" value="" style="pointerEvents=1;verticalLabelPosition=bottom;shadow=0;dashed=0;align=center;html=1;verticalAlign=top;shape=mxgraph.electrical.resistors.resistor_2;direction=south;strokeWidth=3;portConstraintRotation=0;" parent="1" vertex="1">
          <mxGeometry x="72.5" y="130" width="20" height="80" as="geometry" />
        </mxCell>
        <mxCell id="iTf2nIuXYR94NIQKGG5_-24" value="" style="verticalLabelPosition=bottom;shadow=0;dashed=0;align=center;fillColor=strokeColor;html=1;verticalAlign=top;strokeWidth=3;shape=mxgraph.electrical.miscellaneous.monocell_battery;rotation=-90;portConstraintRotation=0;" parent="1" vertex="1">
          <mxGeometry x="52.5" y="90" width="60" height="40" as="geometry" />
        </mxCell>
        <mxCell id="iTf2nIuXYR94NIQKGG5_-25" value="" style="endArrow=none;html=1;rounded=0;strokeWidth=3;" parent="1" edge="1">
          <mxGeometry width="50" height="50" relative="1" as="geometry">
            <mxPoint x="82.5" y="80" as="sourcePoint" />
            <mxPoint x="122.5" y="80" as="targetPoint" />
          </mxGeometry>
        </mxCell>
        <mxCell id="iTf2nIuXYR94NIQKGG5_-26" value="" style="pointerEvents=1;verticalLabelPosition=bottom;shadow=0;dashed=0;align=center;html=1;verticalAlign=top;shape=mxgraph.electrical.resistors.resistor_2;direction=south;strokeWidth=3;portConstraintRotation=0;" parent="1" vertex="1">
          <mxGeometry x="592.5" y="80" width="20" height="80" as="geometry" />
        </mxCell>
        <mxCell id="iTf2nIuXYR94NIQKGG5_-27" value="" style="verticalLabelPosition=bottom;shadow=0;dashed=0;align=center;fillColor=strokeColor;html=1;verticalAlign=top;strokeWidth=3;shape=mxgraph.electrical.miscellaneous.monocell_battery;rotation=-90;portConstraintRotation=0;" parent="1" vertex="1">
          <mxGeometry x="378.75" y="115.63" width="47.5" height="41.25" as="geometry" />
        </mxCell>
        <mxCell id="iTf2nIuXYR94NIQKGG5_-28" value="" style="pointerEvents=1;verticalLabelPosition=bottom;shadow=0;dashed=0;align=center;html=1;verticalAlign=top;shape=mxgraph.electrical.resistors.resistor_2;direction=south;strokeWidth=3;portConstraintRotation=0;" parent="1" vertex="1">
          <mxGeometry x="272.5" y="80" width="20" height="80" as="geometry" />
        </mxCell>
        <mxCell id="iTf2nIuXYR94NIQKGG5_-29" value="" style="endArrow=classic;html=1;rounded=0;" parent="1" edge="1">
          <mxGeometry width="50" height="50" relative="1" as="geometry">
            <mxPoint x="292.5" y="360" as="sourcePoint" />
            <mxPoint x="292.5" y="320" as="targetPoint" />
          </mxGeometry>
        </mxCell>
        <mxCell id="iTf2nIuXYR94NIQKGG5_-30" value="" style="endArrow=classic;html=1;rounded=0;" parent="1" edge="1">
          <mxGeometry width="50" height="50" relative="1" as="geometry">
            <mxPoint x="392.5" y="360" as="sourcePoint" />
            <mxPoint x="392.5" y="320" as="targetPoint" />
          </mxGeometry>
        </mxCell>
        <mxCell id="iTf2nIuXYR94NIQKGG5_-31" value="" style="pointerEvents=1;verticalLabelPosition=bottom;shadow=0;dashed=0;align=center;html=1;verticalAlign=top;shape=mxgraph.electrical.resistors.resistor_2;direction=south;strokeWidth=3;" parent="1" vertex="1">
          <mxGeometry x="397.5" y="80" width="10" height="40" as="geometry" />
        </mxCell>
        <mxCell id="iTf2nIuXYR94NIQKGG5_-32" value="Rin" style="text;html=1;align=center;verticalAlign=middle;whiteSpace=wrap;rounded=0;direction=west;rotation=0;fontFamily=Times New Roman;fontStyle=1;fontSize=15;" parent="1" vertex="1">
          <mxGeometry x="222.5" y="105" width="60" height="30" as="geometry" />
        </mxCell>
        <mxCell id="iTf2nIuXYR94NIQKGG5_-33" value="Rout" style="text;html=1;align=center;verticalAlign=middle;whiteSpace=wrap;rounded=0;direction=west;rotation=0;fontFamily=Times New Roman;fontStyle=1;fontSize=15;" parent="1" vertex="1">
          <mxGeometry x="397.5" y="85" width="65" height="30" as="geometry" />
        </mxCell>
        <mxCell id="iTf2nIuXYR94NIQKGG5_-34" value="Vo" style="text;html=1;align=center;verticalAlign=middle;whiteSpace=wrap;rounded=0;direction=west;rotation=0;fontFamily=Times New Roman;fontStyle=1;fontSize=15;" parent="1" vertex="1">
          <mxGeometry x="407.5" y="121.25" width="55" height="30" as="geometry" />
        </mxCell>
        <mxCell id="iTf2nIuXYR94NIQKGG5_-35" value="Vref" style="text;html=1;align=center;verticalAlign=middle;whiteSpace=wrap;rounded=0;direction=west;rotation=0;fontFamily=Times New Roman;fontStyle=1;fontSize=15;" parent="1" vertex="1">
          <mxGeometry x="40" y="80" width="40" height="30" as="geometry" />
        </mxCell>
        <mxCell id="iTf2nIuXYR94NIQKGG5_-36" value="Rg" style="text;html=1;align=center;verticalAlign=middle;whiteSpace=wrap;rounded=0;direction=west;rotation=0;fontFamily=Times New Roman;fontStyle=1;fontSize=15;" parent="1" vertex="1">
          <mxGeometry x="82.5" y="156.88" width="50" height="30" as="geometry" />
        </mxCell>
        <mxCell id="iTf2nIuXYR94NIQKGG5_-37" value="Vof" style="text;html=1;align=center;verticalAlign=middle;whiteSpace=wrap;rounded=0;direction=west;rotation=0;fontFamily=Times New Roman;fontStyle=1;fontSize=15;" parent="1" vertex="1">
          <mxGeometry x="276.5" y="325" width="60" height="30" as="geometry" />
        </mxCell>
        <mxCell id="iTf2nIuXYR94NIQKGG5_-38" value="Vif" style="text;html=1;align=center;verticalAlign=middle;whiteSpace=wrap;rounded=0;direction=west;rotation=0;fontFamily=Times New Roman;fontStyle=1;fontSize=15;" parent="1" vertex="1">
          <mxGeometry x="347.5" y="325" width="60" height="30" as="geometry" />
        </mxCell>
        <mxCell id="iTf2nIuXYR94NIQKGG5_-39" value="Ro" style="text;html=1;align=center;verticalAlign=middle;whiteSpace=wrap;rounded=0;direction=west;rotation=0;fontFamily=Times New Roman;fontStyle=1;fontSize=15;" parent="1" vertex="1">
          <mxGeometry x="602.5" y="105" width="50" height="30" as="geometry" />
        </mxCell>
        <mxCell id="iTf2nIuXYR94NIQKGG5_-40" value="" style="endArrow=classic;html=1;rounded=0;" parent="1" edge="1">
          <mxGeometry width="50" height="50" relative="1" as="geometry">
            <mxPoint x="182.5" y="150" as="sourcePoint" />
            <mxPoint x="182.5" y="90" as="targetPoint" />
          </mxGeometry>
        </mxCell>
        <mxCell id="iTf2nIuXYR94NIQKGG5_-41" value="" style="endArrow=classic;html=1;rounded=0;" parent="1" edge="1">
          <mxGeometry width="50" height="50" relative="1" as="geometry">
            <mxPoint x="492.5" y="150" as="sourcePoint" />
            <mxPoint x="492.5" y="90" as="targetPoint" />
          </mxGeometry>
        </mxCell>
        <mxCell id="iTf2nIuXYR94NIQKGG5_-42" value="Vin" style="text;html=1;align=center;verticalAlign=middle;whiteSpace=wrap;rounded=0;direction=west;rotation=0;fontFamily=Times New Roman;fontStyle=1;fontSize=15;" parent="1" vertex="1">
          <mxGeometry x="145" y="105" width="40" height="30" as="geometry" />
        </mxCell>
        <mxCell id="iTf2nIuXYR94NIQKGG5_-43" value="Vout" style="text;html=1;align=center;verticalAlign=middle;whiteSpace=wrap;rounded=0;direction=west;rotation=0;fontFamily=Times New Roman;fontStyle=1;fontSize=15;" parent="1" vertex="1">
          <mxGeometry x="492.5" y="105" width="40" height="30" as="geometry" />
        </mxCell>
        <mxCell id="iTf2nIuXYR94NIQKGG5_-44" value="" style="verticalLabelPosition=bottom;shadow=0;dashed=0;align=center;html=1;verticalAlign=top;shape=mxgraph.electrical.transistors.npn_transistor_5;portConstraintRotation=0;strokeWidth=3;" parent="1" vertex="1">
          <mxGeometry x="338" y="550" width="64" height="100" as="geometry" />
        </mxCell>
        <mxCell id="iTf2nIuXYR94NIQKGG5_-45" value="" style="pointerEvents=1;verticalLabelPosition=bottom;shadow=0;dashed=0;align=center;html=1;verticalAlign=top;shape=mxgraph.electrical.resistors.resistor_2;direction=south;strokeWidth=3;portConstraintRotation=0;" parent="1" vertex="1">
          <mxGeometry x="392" y="720" width="20" height="80" as="geometry" />
        </mxCell>
        <mxCell id="iTf2nIuXYR94NIQKGG5_-46" value="" style="endArrow=none;html=1;rounded=0;entryX=1;entryY=1;entryDx=0;entryDy=0;entryPerimeter=0;strokeWidth=3;" parent="1" target="iTf2nIuXYR94NIQKGG5_-44" edge="1">
          <mxGeometry width="50" height="50" relative="1" as="geometry">
            <mxPoint x="402" y="720" as="sourcePoint" />
            <mxPoint x="452" y="670" as="targetPoint" />
          </mxGeometry>
        </mxCell>
        <mxCell id="iTf2nIuXYR94NIQKGG5_-47" value="" style="pointerEvents=1;verticalLabelPosition=bottom;shadow=0;dashed=0;align=center;html=1;verticalAlign=top;shape=mxgraph.electrical.resistors.resistor_2;direction=west;strokeWidth=3;portConstraintRotation=0;" parent="1" vertex="1">
          <mxGeometry x="282" y="670" width="80" height="20" as="geometry" />
        </mxCell>
        <mxCell id="iTf2nIuXYR94NIQKGG5_-48" value="" style="pointerEvents=1;verticalLabelPosition=bottom;shadow=0;dashed=0;align=center;html=1;verticalAlign=top;shape=mxgraph.electrical.resistors.resistor_2;direction=south;strokeWidth=3;portConstraintRotation=0;" parent="1" vertex="1">
          <mxGeometry x="232" y="720" width="20" height="80" as="geometry" />
        </mxCell>
        <mxCell id="iTf2nIuXYR94NIQKGG5_-49" value="" style="endArrow=none;html=1;rounded=0;strokeWidth=3;" parent="1" edge="1">
          <mxGeometry width="50" height="50" relative="1" as="geometry">
            <mxPoint x="212" y="680" as="sourcePoint" />
            <mxPoint x="282" y="680" as="targetPoint" />
          </mxGeometry>
        </mxCell>
        <mxCell id="iTf2nIuXYR94NIQKGG5_-50" value="" style="endArrow=none;html=1;rounded=0;strokeWidth=3;" parent="1" edge="1">
          <mxGeometry width="50" height="50" relative="1" as="geometry">
            <mxPoint x="242" y="720" as="sourcePoint" />
            <mxPoint x="242" y="680" as="targetPoint" />
          </mxGeometry>
        </mxCell>
        <mxCell id="iTf2nIuXYR94NIQKGG5_-51" value="" style="endArrow=none;html=1;rounded=0;exitX=0;exitY=0.5;exitDx=0;exitDy=0;exitPerimeter=0;strokeWidth=3;" parent="1" source="iTf2nIuXYR94NIQKGG5_-47" edge="1">
          <mxGeometry width="50" height="50" relative="1" as="geometry">
            <mxPoint x="352" y="730" as="sourcePoint" />
            <mxPoint x="402" y="680" as="targetPoint" />
          </mxGeometry>
        </mxCell>
        <mxCell id="iTf2nIuXYR94NIQKGG5_-52" value="" style="verticalLabelPosition=bottom;shadow=0;dashed=0;align=center;html=1;verticalAlign=top;shape=mxgraph.electrical.transistors.npn_transistor_5;portConstraintRotation=0;rotation=-180;strokeWidth=3;flipV=1;" parent="1" vertex="1">
          <mxGeometry x="160" y="630" width="58.75" height="100" as="geometry" />
        </mxCell>
        <mxCell id="iTf2nIuXYR94NIQKGG5_-53" value="" style="pointerEvents=1;verticalLabelPosition=bottom;shadow=0;dashed=0;align=center;html=1;verticalAlign=top;shape=mxgraph.electrical.resistors.resistor_2;direction=south;strokeWidth=3;portConstraintRotation=0;" parent="1" vertex="1">
          <mxGeometry x="150" y="480" width="20" height="80" as="geometry" />
        </mxCell>
        <mxCell id="iTf2nIuXYR94NIQKGG5_-54" value="" style="endArrow=none;html=1;rounded=0;strokeWidth=3;" parent="1" edge="1">
          <mxGeometry width="50" height="50" relative="1" as="geometry">
            <mxPoint x="160" y="600" as="sourcePoint" />
            <mxPoint x="346" y="600" as="targetPoint" />
          </mxGeometry>
        </mxCell>
        <mxCell id="iTf2nIuXYR94NIQKGG5_-56" value="" style="endArrow=none;html=1;rounded=0;strokeWidth=3;" parent="1" edge="1">
          <mxGeometry width="50" height="50" relative="1" as="geometry">
            <mxPoint x="402" y="560" as="sourcePoint" />
            <mxPoint x="402" y="480" as="targetPoint" />
          </mxGeometry>
        </mxCell>
        <mxCell id="iTf2nIuXYR94NIQKGG5_-57" value="" style="endArrow=none;html=1;rounded=0;strokeWidth=3;" parent="1" edge="1">
          <mxGeometry width="50" height="50" relative="1" as="geometry">
            <mxPoint x="82" y="480" as="sourcePoint" />
            <mxPoint x="402" y="480" as="targetPoint" />
          </mxGeometry>
        </mxCell>
        <mxCell id="iTf2nIuXYR94NIQKGG5_-58" value="" style="verticalLabelPosition=bottom;shadow=0;dashed=0;align=center;fillColor=strokeColor;html=1;verticalAlign=top;strokeWidth=3;shape=mxgraph.electrical.miscellaneous.monocell_battery;rotation=-90;portConstraintRotation=0;" parent="1" vertex="1">
          <mxGeometry x="52" y="490" width="60" height="40" as="geometry" />
        </mxCell>
        <mxCell id="iTf2nIuXYR94NIQKGG5_-61" value="" style="verticalLabelPosition=bottom;shadow=0;dashed=0;align=center;fillColor=strokeColor;html=1;verticalAlign=top;strokeWidth=3;shape=mxgraph.electrical.miscellaneous.monocell_battery;rotation=-90;portConstraintRotation=0;" parent="1" vertex="1">
          <mxGeometry x="123" y="742" width="74" height="40.5" as="geometry" />
        </mxCell>
        <mxCell id="iTf2nIuXYR94NIQKGG5_-62" value="" style="endArrow=none;html=1;rounded=0;entryX=1;entryY=0.5;entryDx=0;entryDy=0;entryPerimeter=0;strokeWidth=3;" parent="1" target="iTf2nIuXYR94NIQKGG5_-45" edge="1">
          <mxGeometry width="50" height="50" relative="1" as="geometry">
            <mxPoint x="160" y="800" as="sourcePoint" />
            <mxPoint x="212" y="750" as="targetPoint" />
          </mxGeometry>
        </mxCell>
        <mxCell id="iTf2nIuXYR94NIQKGG5_-64" value="&lt;font&gt;Q1&lt;/font&gt;&lt;div&gt;&lt;font&gt;MJE3055T&lt;/font&gt;&lt;/div&gt;" style="rounded=0;whiteSpace=wrap;html=1;fillColor=none;strokeColor=none;fontStyle=1;fontFamily=Times New Roman;fontSize=14;" parent="1" vertex="1">
          <mxGeometry x="390" y="590" width="62.5" height="20" as="geometry" />
        </mxCell>
        <mxCell id="iTf2nIuXYR94NIQKGG5_-65" value="&lt;font&gt;Q2&lt;/font&gt;&lt;div&gt;&lt;font&gt;BC547C&lt;/font&gt;&lt;/div&gt;" style="rounded=0;whiteSpace=wrap;html=1;fillColor=none;strokeColor=none;fontStyle=1;fontFamily=Times New Roman;fontSize=14;" parent="1" vertex="1">
          <mxGeometry x="120" y="670" width="62" height="20" as="geometry" />
        </mxCell>
        <mxCell id="iTf2nIuXYR94NIQKGG5_-66" value="&lt;font&gt;Vin&lt;/font&gt;&lt;div&gt;&lt;font&gt;10V&lt;/font&gt;&lt;/div&gt;" style="rounded=0;whiteSpace=wrap;html=1;fillColor=none;strokeColor=none;fontStyle=1;fontFamily=Times New Roman;fontSize=14;" parent="1" vertex="1">
          <mxGeometry x="32" y="495" width="30" height="30" as="geometry" />
        </mxCell>
        <mxCell id="iTf2nIuXYR94NIQKGG5_-67" value="&lt;font&gt;R1&lt;/font&gt;" style="rounded=0;whiteSpace=wrap;html=1;fillColor=none;strokeColor=none;fontStyle=1;fontFamily=Times New Roman;fontSize=14;" parent="1" vertex="1">
          <mxGeometry x="178.5" y="505" width="23" height="15" as="geometry" />
        </mxCell>
        <mxCell id="iTf2nIuXYR94NIQKGG5_-68" value="&lt;font&gt;Rf2&lt;/font&gt;" style="rounded=0;whiteSpace=wrap;html=1;fillColor=none;strokeColor=none;fontStyle=1;fontFamily=Times New Roman;fontSize=14;" parent="1" vertex="1">
          <mxGeometry x="309.5" y="630" width="25" height="20" as="geometry" />
        </mxCell>
        <mxCell id="iTf2nIuXYR94NIQKGG5_-69" value="&lt;font&gt;Rf1&lt;/font&gt;" style="rounded=0;whiteSpace=wrap;html=1;fillColor=none;strokeColor=none;fontStyle=1;fontFamily=Times New Roman;fontSize=14;" parent="1" vertex="1">
          <mxGeometry x="262" y="745" width="20" height="20" as="geometry" />
        </mxCell>
        <mxCell id="iTf2nIuXYR94NIQKGG5_-70" value="&lt;font&gt;RL&lt;/font&gt;" style="rounded=0;whiteSpace=wrap;html=1;fillColor=none;strokeColor=none;fontStyle=1;fontFamily=Times New Roman;fontSize=14;" parent="1" vertex="1">
          <mxGeometry x="412" y="745" width="30" height="30" as="geometry" />
        </mxCell>
        <mxCell id="iTf2nIuXYR94NIQKGG5_-71" value="&lt;font&gt;V2&lt;/font&gt;&lt;div&gt;&lt;font&gt;1.3V&lt;/font&gt;&lt;/div&gt;" style="rounded=0;whiteSpace=wrap;html=1;fillColor=none;strokeColor=none;fontStyle=1;fontFamily=Times New Roman;fontSize=14;" parent="1" vertex="1">
          <mxGeometry x="112" y="745" width="30" height="30" as="geometry" />
        </mxCell>
        <mxCell id="iTf2nIuXYR94NIQKGG5_-72" value="&lt;font&gt;3kÎ©&lt;/font&gt;" style="rounded=0;whiteSpace=wrap;html=1;fillColor=none;strokeColor=none;fontStyle=1;fontFamily=Times New Roman;fontSize=14;" parent="1" vertex="1">
          <mxGeometry x="309.5" y="650" width="25" height="10" as="geometry" />
        </mxCell>
        <mxCell id="iTf2nIuXYR94NIQKGG5_-73" value="&lt;font face=&quot;Comic Sans MS&quot;&gt;2kÎ©&lt;/font&gt;" style="rounded=0;whiteSpace=wrap;html=1;fillColor=none;strokeColor=none;fontStyle=1" parent="1" vertex="1">
          <mxGeometry x="262" y="760" width="20" height="20" as="geometry" />
        </mxCell>
        <mxCell id="iTf2nIuXYR94NIQKGG5_-74" value="&lt;font&gt;500Î©&lt;/font&gt;" style="rounded=0;whiteSpace=wrap;html=1;fillColor=none;strokeColor=none;fontStyle=1;fontFamily=Times New Roman;fontSize=14;" parent="1" vertex="1">
          <mxGeometry x="178.5" y="520" width="23.5" height="20" as="geometry" />
        </mxCell>
        <mxCell id="iTf2nIuXYR94NIQKGG5_-75" value="" style="endArrow=none;html=1;rounded=0;strokeWidth=3;" parent="1" target="iTf2nIuXYR94NIQKGG5_-53" edge="1">
          <mxGeometry width="50" height="50" relative="1" as="geometry">
            <mxPoint x="160" y="640" as="sourcePoint" />
            <mxPoint x="210" y="590" as="targetPoint" />
          </mxGeometry>
        </mxCell>
        <mxCell id="iTf2nIuXYR94NIQKGG5_-77" value="" style="verticalLabelPosition=bottom;shadow=0;dashed=0;align=center;fillColor=strokeColor;html=1;verticalAlign=top;strokeWidth=3;shape=mxgraph.electrical.miscellaneous.monocell_battery;rotation=-90;portConstraintRotation=0;" parent="1" vertex="1">
          <mxGeometry x="970" y="127.5" width="60" height="40" as="geometry" />
        </mxCell>
        <mxCell id="iTf2nIuXYR94NIQKGG5_-78" value="" style="endArrow=none;html=1;rounded=0;strokeWidth=3;" parent="1" edge="1">
          <mxGeometry width="50" height="50" relative="1" as="geometry">
            <mxPoint x="1000" y="117.5" as="sourcePoint" />
            <mxPoint x="1000" y="77.5" as="targetPoint" />
          </mxGeometry>
        </mxCell>
        <mxCell id="iTf2nIuXYR94NIQKGG5_-82" value="" style="verticalLabelPosition=bottom;shadow=0;dashed=0;align=center;html=1;verticalAlign=top;shape=mxgraph.electrical.transistors.pnp_transistor_5;strokeWidth=3;" parent="1" vertex="1">
          <mxGeometry x="1286.2" y="107.5" width="64" height="100" as="geometry" />
        </mxCell>
        <mxCell id="iTf2nIuXYR94NIQKGG5_-83" value="" style="verticalLabelPosition=bottom;shadow=0;dashed=0;align=center;html=1;verticalAlign=top;shape=mxgraph.electrical.transistors.pnp_transistor_5;flipH=1;strokeWidth=3;" parent="1" vertex="1">
          <mxGeometry x="1199.81" y="107.5" width="64" height="100" as="geometry" />
        </mxCell>
        <mxCell id="iTf2nIuXYR94NIQKGG5_-84" value="" style="endArrow=none;html=1;rounded=0;entryX=0;entryY=0.5;entryDx=0;entryDy=0;entryPerimeter=0;strokeWidth=3;" parent="1" target="iTf2nIuXYR94NIQKGG5_-82" edge="1">
          <mxGeometry width="50" height="50" relative="1" as="geometry">
            <mxPoint x="1250" y="157.5" as="sourcePoint" />
            <mxPoint x="1300" y="107.5" as="targetPoint" />
          </mxGeometry>
        </mxCell>
        <mxCell id="iTf2nIuXYR94NIQKGG5_-85" value="" style="endArrow=none;html=1;rounded=0;strokeWidth=3;" parent="1" edge="1">
          <mxGeometry width="50" height="50" relative="1" as="geometry">
            <mxPoint x="1000" y="77.5" as="sourcePoint" />
            <mxPoint x="1660" y="77.5" as="targetPoint" />
          </mxGeometry>
        </mxCell>
        <mxCell id="iTf2nIuXYR94NIQKGG5_-86" value="" style="endArrow=none;html=1;rounded=0;strokeWidth=3;" parent="1" edge="1">
          <mxGeometry width="50" height="50" relative="1" as="geometry">
            <mxPoint x="1200" y="117.5" as="sourcePoint" />
            <mxPoint x="1200" y="77.5" as="targetPoint" />
          </mxGeometry>
        </mxCell>
        <mxCell id="iTf2nIuXYR94NIQKGG5_-87" value="" style="endArrow=none;html=1;rounded=0;strokeWidth=3;" parent="1" edge="1">
          <mxGeometry width="50" height="50" relative="1" as="geometry">
            <mxPoint x="1350" y="117.5" as="sourcePoint" />
            <mxPoint x="1350" y="77.5" as="targetPoint" />
          </mxGeometry>
        </mxCell>
        <mxCell id="iTf2nIuXYR94NIQKGG5_-88" value="" style="endArrow=none;html=1;rounded=0;exitX=1;exitY=0;exitDx=0;exitDy=0;exitPerimeter=0;strokeWidth=3;" parent="1" source="iTf2nIuXYR94NIQKGG5_-111" edge="1">
          <mxGeometry width="50" height="50" relative="1" as="geometry">
            <mxPoint x="1350" y="417.5" as="sourcePoint" />
            <mxPoint x="1350" y="197.5" as="targetPoint" />
          </mxGeometry>
        </mxCell>
        <mxCell id="iTf2nIuXYR94NIQKGG5_-89" value="" style="verticalLabelPosition=bottom;shadow=0;dashed=0;align=center;html=1;verticalAlign=top;shape=mxgraph.electrical.transistors.npn_transistor_5;strokeWidth=3;" parent="1" vertex="1">
          <mxGeometry x="1525.7" y="187.5" width="64" height="100" as="geometry" />
        </mxCell>
        <mxCell id="iTf2nIuXYR94NIQKGG5_-90" value="" style="verticalLabelPosition=bottom;shadow=0;dashed=0;align=center;html=1;verticalAlign=top;shape=mxgraph.electrical.transistors.pnp_transistor_5;flipH=0;strokeWidth=3;" parent="1" vertex="1">
          <mxGeometry x="1596" y="137.5" width="64" height="100" as="geometry" />
        </mxCell>
        <mxCell id="iTf2nIuXYR94NIQKGG5_-91" value="" style="endArrow=none;html=1;rounded=0;entryX=0.063;entryY=0.5;entryDx=0;entryDy=0;entryPerimeter=0;strokeWidth=3;" parent="1" target="iTf2nIuXYR94NIQKGG5_-90" edge="1">
          <mxGeometry width="50" height="50" relative="1" as="geometry">
            <mxPoint x="1589.7" y="187.5" as="sourcePoint" />
            <mxPoint x="1589.7" y="137.5" as="targetPoint" />
          </mxGeometry>
        </mxCell>
        <mxCell id="iTf2nIuXYR94NIQKGG5_-92" value="" style="endArrow=none;html=1;rounded=0;entryX=0;entryY=0.5;entryDx=0;entryDy=0;entryPerimeter=0;strokeWidth=3;" parent="1" target="iTf2nIuXYR94NIQKGG5_-89" edge="1">
          <mxGeometry width="50" height="50" relative="1" as="geometry">
            <mxPoint x="1350" y="237.5" as="sourcePoint" />
            <mxPoint x="1400" y="187.5" as="targetPoint" />
          </mxGeometry>
        </mxCell>
        <mxCell id="iTf2nIuXYR94NIQKGG5_-94" value="" style="verticalLabelPosition=bottom;shadow=0;dashed=0;align=center;html=1;verticalAlign=top;shape=mxgraph.electrical.transistors.npn_transistor_5;flipH=1;strokeWidth=3;" parent="1" vertex="1">
          <mxGeometry x="1479.8" y="292.5" width="64" height="100" as="geometry" />
        </mxCell>
        <mxCell id="iTf2nIuXYR94NIQKGG5_-95" value="" style="endArrow=none;html=1;rounded=0;strokeWidth=3;" parent="1" edge="1">
          <mxGeometry width="50" height="50" relative="1" as="geometry">
            <mxPoint x="1480" y="297.5" as="sourcePoint" />
            <mxPoint x="1480" y="237.5" as="targetPoint" />
          </mxGeometry>
        </mxCell>
        <mxCell id="iTf2nIuXYR94NIQKGG5_-96" value="" style="endArrow=none;html=1;rounded=0;strokeWidth=3;" parent="1" edge="1">
          <mxGeometry width="50" height="50" relative="1" as="geometry">
            <mxPoint x="1590" y="287.5" as="sourcePoint" />
            <mxPoint x="1660" y="287.5" as="targetPoint" />
          </mxGeometry>
        </mxCell>
        <mxCell id="iTf2nIuXYR94NIQKGG5_-98" value="" style="pointerEvents=1;verticalLabelPosition=bottom;shadow=0;dashed=0;align=center;html=1;verticalAlign=top;shape=mxgraph.electrical.resistors.resistor_2;direction=south;strokeWidth=3;" parent="1" vertex="1">
          <mxGeometry x="1523.8" y="342.5" width="20" height="80" as="geometry" />
        </mxCell>
        <mxCell id="iTf2nIuXYR94NIQKGG5_-99" value="" style="pointerEvents=1;verticalLabelPosition=bottom;shadow=0;dashed=0;align=center;html=1;verticalAlign=top;shape=mxgraph.electrical.resistors.resistor_2;direction=south;strokeWidth=3;" parent="1" vertex="1">
          <mxGeometry x="1650" y="342.5" width="20" height="80" as="geometry" />
        </mxCell>
        <mxCell id="iTf2nIuXYR94NIQKGG5_-100" value="" style="pointerEvents=1;verticalLabelPosition=bottom;shadow=0;dashed=0;align=center;html=1;verticalAlign=top;shape=mxgraph.electrical.resistors.resistor_2;direction=west;strokeWidth=3;" parent="1" vertex="1">
          <mxGeometry x="1557" y="332.5" width="80" height="20" as="geometry" />
        </mxCell>
        <mxCell id="iTf2nIuXYR94NIQKGG5_-101" value="" style="endArrow=none;html=1;rounded=0;strokeWidth=3;" parent="1" edge="1">
          <mxGeometry width="50" height="50" relative="1" as="geometry">
            <mxPoint x="1630" y="342.5" as="sourcePoint" />
            <mxPoint x="1660" y="342.5" as="targetPoint" />
          </mxGeometry>
        </mxCell>
        <mxCell id="iTf2nIuXYR94NIQKGG5_-102" value="" style="endArrow=none;html=1;rounded=0;exitX=0;exitY=0.5;exitDx=0;exitDy=0;exitPerimeter=0;strokeWidth=3;" parent="1" source="iTf2nIuXYR94NIQKGG5_-99" edge="1">
          <mxGeometry width="50" height="50" relative="1" as="geometry">
            <mxPoint x="1610" y="287.5" as="sourcePoint" />
            <mxPoint x="1660" y="237.5" as="targetPoint" />
          </mxGeometry>
        </mxCell>
        <mxCell id="iTf2nIuXYR94NIQKGG5_-103" value="" style="endArrow=none;html=1;rounded=0;entryX=1;entryY=0.5;entryDx=0;entryDy=0;entryPerimeter=0;strokeWidth=3;" parent="1" target="iTf2nIuXYR94NIQKGG5_-100" edge="1">
          <mxGeometry width="50" height="50" relative="1" as="geometry">
            <mxPoint x="1532.7" y="342.5" as="sourcePoint" />
            <mxPoint x="1582.7" y="292.5" as="targetPoint" />
          </mxGeometry>
        </mxCell>
        <mxCell id="iTf2nIuXYR94NIQKGG5_-104" value="" style="pointerEvents=1;verticalLabelPosition=bottom;shadow=0;dashed=0;align=center;html=1;verticalAlign=top;shape=mxgraph.electrical.signal_sources.signal_ground;strokeWidth=3;" parent="1" vertex="1">
          <mxGeometry x="1519.45" y="417.5" width="28.7" height="20" as="geometry" />
        </mxCell>
        <mxCell id="iTf2nIuXYR94NIQKGG5_-105" value="" style="endArrow=none;html=1;rounded=0;strokeWidth=3;" parent="1" edge="1">
          <mxGeometry width="50" height="50" relative="1" as="geometry">
            <mxPoint x="1480" y="477.5" as="sourcePoint" />
            <mxPoint x="1480" y="387.5" as="targetPoint" />
          </mxGeometry>
        </mxCell>
        <mxCell id="iTf2nIuXYR94NIQKGG5_-106" value="" style="endArrow=none;html=1;rounded=0;strokeWidth=3;" parent="1" edge="1">
          <mxGeometry width="50" height="50" relative="1" as="geometry">
            <mxPoint x="1480" y="477.5" as="sourcePoint" />
            <mxPoint x="1660" y="477.5" as="targetPoint" />
          </mxGeometry>
        </mxCell>
        <mxCell id="iTf2nIuXYR94NIQKGG5_-107" value="" style="endArrow=none;html=1;rounded=0;strokeWidth=3;" parent="1" edge="1">
          <mxGeometry width="50" height="50" relative="1" as="geometry">
            <mxPoint x="1660" y="517.5" as="sourcePoint" />
            <mxPoint x="1660" y="417.5" as="targetPoint" />
          </mxGeometry>
        </mxCell>
        <mxCell id="iTf2nIuXYR94NIQKGG5_-108" value="" style="pointerEvents=1;verticalLabelPosition=bottom;shadow=0;dashed=0;align=center;html=1;verticalAlign=top;shape=mxgraph.electrical.resistors.resistor_2;direction=south;strokeWidth=3;" parent="1" vertex="1">
          <mxGeometry x="1650" y="507.5" width="20" height="80" as="geometry" />
        </mxCell>
        <mxCell id="iTf2nIuXYR94NIQKGG5_-109" value="" style="pointerEvents=1;verticalLabelPosition=bottom;shadow=0;dashed=0;align=center;html=1;verticalAlign=top;shape=mxgraph.electrical.resistors.resistor_2;direction=west;strokeWidth=3;" parent="1" vertex="1">
          <mxGeometry x="1525.7" y="507.5" width="80" height="20" as="geometry" />
        </mxCell>
        <mxCell id="iTf2nIuXYR94NIQKGG5_-110" value="" style="pointerEvents=1;verticalLabelPosition=bottom;shadow=0;dashed=0;align=center;html=1;verticalAlign=top;shape=mxgraph.electrical.resistors.resistor_2;direction=south;strokeWidth=3;" parent="1" vertex="1">
          <mxGeometry x="1470" y="517.5" width="20" height="80" as="geometry" />
        </mxCell>
        <mxCell id="iTf2nIuXYR94NIQKGG5_-111" value="" style="verticalLabelPosition=bottom;shadow=0;dashed=0;align=center;html=1;verticalAlign=top;shape=mxgraph.electrical.transistors.npn_transistor_5;flipH=1;strokeWidth=3;" parent="1" vertex="1">
          <mxGeometry x="1349.81" y="467.5" width="64" height="100" as="geometry" />
        </mxCell>
        <mxCell id="iTf2nIuXYR94NIQKGG5_-112" value="" style="endArrow=none;html=1;rounded=0;entryX=1;entryY=0.5;entryDx=0;entryDy=0;entryPerimeter=0;strokeWidth=3;" parent="1" target="iTf2nIuXYR94NIQKGG5_-109" edge="1">
          <mxGeometry width="50" height="50" relative="1" as="geometry">
            <mxPoint x="1410" y="517.5" as="sourcePoint" />
            <mxPoint x="1460" y="467.5" as="targetPoint" />
          </mxGeometry>
        </mxCell>
        <mxCell id="iTf2nIuXYR94NIQKGG5_-113" value="" style="endArrow=none;html=1;rounded=0;entryX=0.125;entryY=0.5;entryDx=0;entryDy=0;entryPerimeter=0;strokeWidth=3;" parent="1" target="iTf2nIuXYR94NIQKGG5_-108" edge="1">
          <mxGeometry width="50" height="50" relative="1" as="geometry">
            <mxPoint x="1600" y="517.5" as="sourcePoint" />
            <mxPoint x="1650" y="467.5" as="targetPoint" />
          </mxGeometry>
        </mxCell>
        <mxCell id="iTf2nIuXYR94NIQKGG5_-114" value="" style="verticalLabelPosition=bottom;shadow=0;dashed=0;align=center;html=1;verticalAlign=top;shape=mxgraph.electrical.transistors.npn_transistor_5;strokeWidth=3;" parent="1" vertex="1">
          <mxGeometry x="1136.2" y="467.5" width="64" height="100" as="geometry" />
        </mxCell>
        <mxCell id="iTf2nIuXYR94NIQKGG5_-115" value="" style="endArrow=none;html=1;rounded=0;exitX=1;exitY=0;exitDx=0;exitDy=0;exitPerimeter=0;strokeWidth=3;" parent="1" source="iTf2nIuXYR94NIQKGG5_-114" edge="1">
          <mxGeometry width="50" height="50" relative="1" as="geometry">
            <mxPoint x="1150" y="247.5" as="sourcePoint" />
            <mxPoint x="1200" y="197.5" as="targetPoint" />
          </mxGeometry>
        </mxCell>
        <mxCell id="iTf2nIuXYR94NIQKGG5_-116" value="" style="verticalLabelPosition=bottom;shadow=0;dashed=0;align=center;fillColor=strokeColor;html=1;verticalAlign=top;strokeWidth=3;shape=mxgraph.electrical.miscellaneous.monocell_battery;rotation=-90;portConstraintRotation=0;" parent="1" vertex="1">
          <mxGeometry x="1050" y="527.5" width="60" height="40" as="geometry" />
        </mxCell>
        <mxCell id="iTf2nIuXYR94NIQKGG5_-117" value="" style="endArrow=none;html=1;rounded=0;strokeWidth=3;" parent="1" target="iTf2nIuXYR94NIQKGG5_-114" edge="1">
          <mxGeometry width="50" height="50" relative="1" as="geometry">
            <mxPoint x="1080" y="517.5" as="sourcePoint" />
            <mxPoint x="1130" y="467.5" as="targetPoint" />
          </mxGeometry>
        </mxCell>
        <mxCell id="iTf2nIuXYR94NIQKGG5_-118" value="" style="endArrow=none;html=1;rounded=0;strokeWidth=3;" parent="1" edge="1">
          <mxGeometry width="50" height="50" relative="1" as="geometry">
            <mxPoint x="1200" y="597.5" as="sourcePoint" />
            <mxPoint x="1200" y="557.5" as="targetPoint" />
          </mxGeometry>
        </mxCell>
        <mxCell id="iTf2nIuXYR94NIQKGG5_-120" value="" style="endArrow=none;html=1;rounded=0;strokeWidth=3;" parent="1" edge="1">
          <mxGeometry width="50" height="50" relative="1" as="geometry">
            <mxPoint x="1350" y="597.5" as="sourcePoint" />
            <mxPoint x="1350" y="557.5" as="targetPoint" />
          </mxGeometry>
        </mxCell>
        <mxCell id="iTf2nIuXYR94NIQKGG5_-121" value="" style="endArrow=none;html=1;rounded=0;strokeWidth=3;" parent="1" edge="1">
          <mxGeometry width="50" height="50" relative="1" as="geometry">
            <mxPoint x="1200" y="597.5" as="sourcePoint" />
            <mxPoint x="1350" y="597.5" as="targetPoint" />
          </mxGeometry>
        </mxCell>
        <mxCell id="iTf2nIuXYR94NIQKGG5_-122" value="" style="endArrow=none;html=1;rounded=0;strokeWidth=3;" parent="1" edge="1">
          <mxGeometry width="50" height="50" relative="1" as="geometry">
            <mxPoint x="1200" y="237.5" as="sourcePoint" />
            <mxPoint x="1280" y="237.5" as="targetPoint" />
          </mxGeometry>
        </mxCell>
        <mxCell id="iTf2nIuXYR94NIQKGG5_-123" value="" style="endArrow=none;html=1;rounded=0;strokeWidth=3;" parent="1" edge="1">
          <mxGeometry width="50" height="50" relative="1" as="geometry">
            <mxPoint x="1280" y="237.5" as="sourcePoint" />
            <mxPoint x="1280" y="157.5" as="targetPoint" />
          </mxGeometry>
        </mxCell>
        <mxCell id="iTf2nIuXYR94NIQKGG5_-124" value="" style="verticalLabelPosition=bottom;shadow=0;dashed=0;align=center;html=1;verticalAlign=top;shape=mxgraph.electrical.transistors.npn_transistor_5;strokeWidth=3;" parent="1" vertex="1">
          <mxGeometry x="1216.2" y="627.5" width="64" height="100" as="geometry" />
        </mxCell>
        <mxCell id="iTf2nIuXYR94NIQKGG5_-125" value="" style="endArrow=none;html=1;rounded=0;strokeWidth=3;" parent="1" edge="1">
          <mxGeometry width="50" height="50" relative="1" as="geometry">
            <mxPoint x="1280" y="637.5" as="sourcePoint" />
            <mxPoint x="1280" y="597.5" as="targetPoint" />
          </mxGeometry>
        </mxCell>
        <mxCell id="iTf2nIuXYR94NIQKGG5_-127" value="" style="pointerEvents=1;verticalLabelPosition=bottom;shadow=0;dashed=0;align=center;html=1;verticalAlign=top;shape=mxgraph.electrical.resistors.resistor_2;direction=south;strokeWidth=3;" parent="1" vertex="1">
          <mxGeometry x="1270" y="740" width="20" height="80" as="geometry" />
        </mxCell>
        <mxCell id="iTf2nIuXYR94NIQKGG5_-128" value="" style="endArrow=none;html=1;rounded=0;exitX=0.094;exitY=0.5;exitDx=0;exitDy=0;exitPerimeter=0;strokeWidth=3;" parent="1" source="iTf2nIuXYR94NIQKGG5_-127" edge="1">
          <mxGeometry width="50" height="50" relative="1" as="geometry">
            <mxPoint x="1230" y="767.5" as="sourcePoint" />
            <mxPoint x="1280" y="717.5" as="targetPoint" />
          </mxGeometry>
        </mxCell>
        <mxCell id="iTf2nIuXYR94NIQKGG5_-129" value="" style="endArrow=none;html=1;rounded=0;strokeWidth=3;" parent="1" edge="1">
          <mxGeometry width="50" height="50" relative="1" as="geometry">
            <mxPoint x="1180" y="677.5" as="sourcePoint" />
            <mxPoint x="1220" y="677.5" as="targetPoint" />
          </mxGeometry>
        </mxCell>
        <mxCell id="iTf2nIuXYR94NIQKGG5_-130" value="" style="verticalLabelPosition=bottom;shadow=0;dashed=0;align=center;fillColor=strokeColor;html=1;verticalAlign=top;strokeWidth=3;shape=mxgraph.electrical.miscellaneous.monocell_battery;rotation=-90;portConstraintRotation=0;" parent="1" vertex="1">
          <mxGeometry x="1150" y="687.5" width="60" height="40" as="geometry" />
        </mxCell>
        <mxCell id="iTf2nIuXYR94NIQKGG5_-131" value="" style="endArrow=none;html=1;rounded=0;strokeWidth=3;" parent="1" edge="1">
          <mxGeometry width="50" height="50" relative="1" as="geometry">
            <mxPoint x="1660" y="137.5" as="sourcePoint" />
            <mxPoint x="1660" y="77.5" as="targetPoint" />
          </mxGeometry>
        </mxCell>
        <mxCell id="iTf2nIuXYR94NIQKGG5_-132" value="" style="pointerEvents=1;verticalLabelPosition=bottom;shadow=0;dashed=0;align=center;html=1;verticalAlign=top;shape=mxgraph.electrical.signal_sources.signal_ground;strokeWidth=3;" parent="1" vertex="1">
          <mxGeometry x="985.65" y="172.5" width="28.7" height="20" as="geometry" />
        </mxCell>
        <mxCell id="iTf2nIuXYR94NIQKGG5_-133" value="" style="pointerEvents=1;verticalLabelPosition=bottom;shadow=0;dashed=0;align=center;html=1;verticalAlign=top;shape=mxgraph.electrical.signal_sources.signal_ground;strokeWidth=3;" parent="1" vertex="1">
          <mxGeometry x="1065.65" y="567.5" width="28.7" height="20" as="geometry" />
        </mxCell>
        <mxCell id="iTf2nIuXYR94NIQKGG5_-134" value="" style="pointerEvents=1;verticalLabelPosition=bottom;shadow=0;dashed=0;align=center;html=1;verticalAlign=top;shape=mxgraph.electrical.signal_sources.signal_ground;strokeWidth=3;" parent="1" vertex="1">
          <mxGeometry x="1165.65" y="727.5" width="28.7" height="20" as="geometry" />
        </mxCell>
        <mxCell id="iTf2nIuXYR94NIQKGG5_-135" value="" style="pointerEvents=1;verticalLabelPosition=bottom;shadow=0;dashed=0;align=center;html=1;verticalAlign=top;shape=mxgraph.electrical.signal_sources.signal_ground;strokeWidth=3;" parent="1" vertex="1">
          <mxGeometry x="1265.65" y="820" width="28.7" height="20" as="geometry" />
        </mxCell>
        <mxCell id="iTf2nIuXYR94NIQKGG5_-136" value="" style="pointerEvents=1;verticalLabelPosition=bottom;shadow=0;dashed=0;align=center;html=1;verticalAlign=top;shape=mxgraph.electrical.signal_sources.signal_ground;strokeWidth=3;" parent="1" vertex="1">
          <mxGeometry x="1465.65" y="587.5" width="28.7" height="20" as="geometry" />
        </mxCell>
        <mxCell id="iTf2nIuXYR94NIQKGG5_-137" value="" style="pointerEvents=1;verticalLabelPosition=bottom;shadow=0;dashed=0;align=center;html=1;verticalAlign=top;shape=mxgraph.electrical.signal_sources.signal_ground;strokeWidth=3;" parent="1" vertex="1">
          <mxGeometry x="1645.65" y="587.5" width="28.7" height="20" as="geometry" />
        </mxCell>
        <mxCell id="iTf2nIuXYR94NIQKGG5_-138" value="" style="endArrow=none;html=1;rounded=0;entryX=0.897;entryY=0.496;entryDx=0;entryDy=0;entryPerimeter=0;strokeWidth=3;" parent="1" target="iTf2nIuXYR94NIQKGG5_-108" edge="1">
          <mxGeometry width="50" height="50" relative="1" as="geometry">
            <mxPoint x="1660" y="592.39" as="sourcePoint" />
            <mxPoint x="1700" y="592.39" as="targetPoint" />
          </mxGeometry>
        </mxCell>
        <mxCell id="iTf2nIuXYR94NIQKGG5_-139" value="Q7&lt;div&gt;BC547C&lt;/div&gt;" style="text;html=1;align=center;verticalAlign=middle;whiteSpace=wrap;rounded=0;fontFamily=Times New Roman;fontSize=15;" parent="1" vertex="1">
          <mxGeometry x="1430" y="327.5" width="70" height="30" as="geometry" />
        </mxCell>
        <mxCell id="iTf2nIuXYR94NIQKGG5_-140" value="Q3&lt;div&gt;BC547C&lt;/div&gt;" style="text;html=1;align=center;verticalAlign=middle;whiteSpace=wrap;rounded=0;fontFamily=Times New Roman;fontSize=15;" parent="1" vertex="1">
          <mxGeometry x="1567" y="222.5" width="70" height="30" as="geometry" />
        </mxCell>
        <mxCell id="iTf2nIuXYR94NIQKGG5_-141" value="Q6&lt;div&gt;MJE2955T&lt;/div&gt;" style="text;html=1;align=center;verticalAlign=middle;whiteSpace=wrap;rounded=0;fontFamily=Times New Roman;fontSize=15;" parent="1" vertex="1">
          <mxGeometry x="1640" y="172.5" width="70" height="30" as="geometry" />
        </mxCell>
        <mxCell id="iTf2nIuXYR94NIQKGG5_-142" value="Q5&lt;div&gt;BC557C&lt;/div&gt;" style="text;html=1;align=center;verticalAlign=middle;whiteSpace=wrap;rounded=0;fontFamily=Times New Roman;fontSize=15;" parent="1" vertex="1">
          <mxGeometry x="1330" y="142.5" width="70" height="30" as="geometry" />
        </mxCell>
        <mxCell id="iTf2nIuXYR94NIQKGG5_-143" value="Q4&lt;div&gt;BC557C&lt;/div&gt;" style="text;html=1;align=center;verticalAlign=middle;whiteSpace=wrap;rounded=0;fontFamily=Times New Roman;fontSize=15;" parent="1" vertex="1">
          <mxGeometry x="1150" y="142.5" width="70" height="30" as="geometry" />
        </mxCell>
        <mxCell id="iTf2nIuXYR94NIQKGG5_-144" value="Q1&lt;div&gt;BC547C&lt;/div&gt;" style="text;html=1;align=center;verticalAlign=middle;whiteSpace=wrap;rounded=0;fontFamily=Times New Roman;fontSize=15;" parent="1" vertex="1">
          <mxGeometry x="1180" y="502.5" width="70" height="30" as="geometry" />
        </mxCell>
        <mxCell id="iTf2nIuXYR94NIQKGG5_-145" value="Q2&lt;div&gt;BC547C&lt;/div&gt;" style="text;html=1;align=center;verticalAlign=middle;whiteSpace=wrap;rounded=0;fontFamily=Times New Roman;fontSize=15;" parent="1" vertex="1">
          <mxGeometry x="1300" y="502.5" width="70" height="30" as="geometry" />
        </mxCell>
        <mxCell id="iTf2nIuXYR94NIQKGG5_-146" value="Q8&lt;div&gt;BC547C&lt;/div&gt;" style="text;html=1;align=center;verticalAlign=middle;whiteSpace=wrap;rounded=0;fontFamily=Times New Roman;fontSize=15;" parent="1" vertex="1">
          <mxGeometry x="1260" y="662.5" width="70" height="30" as="geometry" />
        </mxCell>
        <mxCell id="iTf2nIuXYR94NIQKGG5_-147" value="Vin&lt;br&gt;&lt;div&gt;10V&lt;/div&gt;" style="text;html=1;align=center;verticalAlign=middle;whiteSpace=wrap;rounded=0;fontFamily=Times New Roman;fontSize=15;" parent="1" vertex="1">
          <mxGeometry x="1014.3499999999999" y="132.5" width="35.65" height="30" as="geometry" />
        </mxCell>
        <mxCell id="iTf2nIuXYR94NIQKGG5_-148" value="Vref&lt;br&gt;&lt;div&gt;2.5V&lt;/div&gt;" style="text;html=1;align=center;verticalAlign=middle;whiteSpace=wrap;rounded=0;fontFamily=Times New Roman;fontSize=15;" parent="1" vertex="1">
          <mxGeometry x="1094.35" y="532.5" width="35.65" height="30" as="geometry" />
        </mxCell>
        <mxCell id="iTf2nIuXYR94NIQKGG5_-149" value="Vref&lt;br&gt;&lt;div&gt;2.5V&lt;/div&gt;" style="text;html=1;align=center;verticalAlign=middle;whiteSpace=wrap;rounded=0;fontFamily=Times New Roman;fontSize=15;" parent="1" vertex="1">
          <mxGeometry x="1194.35" y="692.5" width="35.65" height="30" as="geometry" />
        </mxCell>
        <mxCell id="iTf2nIuXYR94NIQKGG5_-150" value="R3&lt;div&gt;2kÎ©&lt;/div&gt;" style="text;html=1;align=center;verticalAlign=middle;whiteSpace=wrap;rounded=0;fontFamily=Times New Roman;fontSize=15;" parent="1" vertex="1">
          <mxGeometry x="1490.05" y="542.5" width="35.65" height="30" as="geometry" />
        </mxCell>
        <mxCell id="iTf2nIuXYR94NIQKGG5_-151" value="R2&lt;div&gt;2kÎ©&lt;/div&gt;" style="text;html=1;align=center;verticalAlign=middle;whiteSpace=wrap;rounded=0;fontFamily=Times New Roman;fontSize=15;" parent="1" vertex="1">
          <mxGeometry x="1547.88" y="532.5" width="35.65" height="30" as="geometry" />
        </mxCell>
        <mxCell id="iTf2nIuXYR94NIQKGG5_-152" value="RL" style="text;html=1;align=center;verticalAlign=middle;whiteSpace=wrap;rounded=0;fontFamily=Times New Roman;fontSize=15;" parent="1" vertex="1">
          <mxGeometry x="1620" y="537.5" width="30" height="30" as="geometry" />
        </mxCell>
        <mxCell id="iTf2nIuXYR94NIQKGG5_-153" value="Rs&lt;div&gt;2.4Î©&lt;/div&gt;" style="text;html=1;align=center;verticalAlign=middle;whiteSpace=wrap;rounded=0;fontFamily=Times New Roman;fontSize=15;" parent="1" vertex="1">
          <mxGeometry x="1674.35" y="367.5" width="35.65" height="30" as="geometry" />
        </mxCell>
        <mxCell id="iTf2nIuXYR94NIQKGG5_-154" value="R4&lt;div&gt;1kÎ©&lt;/div&gt;" style="text;html=1;align=center;verticalAlign=middle;whiteSpace=wrap;rounded=0;fontFamily=Times New Roman;fontSize=15;" parent="1" vertex="1">
          <mxGeometry x="1579.17" y="297.5" width="35.65" height="30" as="geometry" />
        </mxCell>
        <mxCell id="iTf2nIuXYR94NIQKGG5_-155" value="R5&lt;div&gt;1880Î©&lt;/div&gt;" style="text;html=1;align=center;verticalAlign=middle;whiteSpace=wrap;rounded=0;fontFamily=Times New Roman;fontSize=15;" parent="1" vertex="1">
          <mxGeometry x="1548.1499999999999" y="367.5" width="35.65" height="30" as="geometry" />
        </mxCell>
        <mxCell id="iTf2nIuXYR94NIQKGG5_-156" value="R1&lt;div&gt;1.8kÎ©&lt;/div&gt;" style="text;html=1;align=center;verticalAlign=middle;whiteSpace=wrap;rounded=0;fontFamily=Times New Roman;fontSize=15;" parent="1" vertex="1">
          <mxGeometry x="1290" y="767.5" width="35.65" height="30" as="geometry" />
        </mxCell>
        <mxCell id="iTf2nIuXYR94NIQKGG5_-161" value="" style="pointerEvents=1;verticalLabelPosition=bottom;shadow=0;dashed=0;align=center;html=1;verticalAlign=top;shape=mxgraph.electrical.signal_sources.signal_ground;strokeWidth=3;" parent="1" vertex="1">
          <mxGeometry x="305.8" y="800" width="28.7" height="20" as="geometry" />
        </mxCell>
        <mxCell id="iTf2nIuXYR94NIQKGG5_-162" value="" style="pointerEvents=1;verticalLabelPosition=bottom;shadow=0;dashed=0;align=center;html=1;verticalAlign=top;shape=mxgraph.electrical.signal_sources.signal_ground;strokeWidth=3;" parent="1" vertex="1">
          <mxGeometry x="67.65" y="535" width="28.7" height="20" as="geometry" />
        </mxCell>
        <mxCell id="iTf2nIuXYR94NIQKGG5_-163" value="" style="verticalLabelPosition=bottom;shadow=0;dashed=0;align=center;fillColor=strokeColor;html=1;verticalAlign=top;strokeWidth=3;shape=mxgraph.electrical.miscellaneous.monocell_battery;rotation=-90;portConstraintRotation=0;" parent="1" vertex="1">
          <mxGeometry x="1910" y="110" width="60" height="40" as="geometry" />
        </mxCell>
        <mxCell id="iTf2nIuXYR94NIQKGG5_-164" value="" style="endArrow=none;html=1;rounded=0;strokeWidth=3;" parent="1" edge="1">
          <mxGeometry width="50" height="50" relative="1" as="geometry">
            <mxPoint x="1940" y="100" as="sourcePoint" />
            <mxPoint x="1940" y="60" as="targetPoint" />
          </mxGeometry>
        </mxCell>
        <mxCell id="iTf2nIuXYR94NIQKGG5_-165" value="" style="verticalLabelPosition=bottom;shadow=0;dashed=0;align=center;html=1;verticalAlign=top;shape=mxgraph.electrical.transistors.pnp_transistor_5;strokeWidth=3;" parent="1" vertex="1">
          <mxGeometry x="2226.2" y="90" width="64" height="100" as="geometry" />
        </mxCell>
        <mxCell id="iTf2nIuXYR94NIQKGG5_-166" value="" style="verticalLabelPosition=bottom;shadow=0;dashed=0;align=center;html=1;verticalAlign=top;shape=mxgraph.electrical.transistors.pnp_transistor_5;flipH=1;strokeWidth=3;" parent="1" vertex="1">
          <mxGeometry x="2139.81" y="90" width="64" height="100" as="geometry" />
        </mxCell>
        <mxCell id="iTf2nIuXYR94NIQKGG5_-167" value="" style="endArrow=none;html=1;rounded=0;entryX=0;entryY=0.5;entryDx=0;entryDy=0;entryPerimeter=0;strokeWidth=3;" parent="1" target="iTf2nIuXYR94NIQKGG5_-165" edge="1">
          <mxGeometry width="50" height="50" relative="1" as="geometry">
            <mxPoint x="2190" y="140" as="sourcePoint" />
            <mxPoint x="2240" y="90" as="targetPoint" />
          </mxGeometry>
        </mxCell>
        <mxCell id="iTf2nIuXYR94NIQKGG5_-168" value="" style="endArrow=none;html=1;rounded=0;strokeWidth=3;" parent="1" edge="1">
          <mxGeometry width="50" height="50" relative="1" as="geometry">
            <mxPoint x="1940" y="60" as="sourcePoint" />
            <mxPoint x="2600" y="60" as="targetPoint" />
          </mxGeometry>
        </mxCell>
        <mxCell id="iTf2nIuXYR94NIQKGG5_-169" value="" style="endArrow=none;html=1;rounded=0;strokeWidth=3;" parent="1" edge="1">
          <mxGeometry width="50" height="50" relative="1" as="geometry">
            <mxPoint x="2140" y="100" as="sourcePoint" />
            <mxPoint x="2140" y="60" as="targetPoint" />
          </mxGeometry>
        </mxCell>
        <mxCell id="iTf2nIuXYR94NIQKGG5_-170" value="" style="endArrow=none;html=1;rounded=0;strokeWidth=3;" parent="1" edge="1">
          <mxGeometry width="50" height="50" relative="1" as="geometry">
            <mxPoint x="2290" y="100" as="sourcePoint" />
            <mxPoint x="2290" y="60" as="targetPoint" />
          </mxGeometry>
        </mxCell>
        <mxCell id="iTf2nIuXYR94NIQKGG5_-171" value="" style="endArrow=none;html=1;rounded=0;exitX=1;exitY=0;exitDx=0;exitDy=0;exitPerimeter=0;strokeWidth=3;" parent="1" source="iTf2nIuXYR94NIQKGG5_-192" edge="1">
          <mxGeometry width="50" height="50" relative="1" as="geometry">
            <mxPoint x="2290" y="400" as="sourcePoint" />
            <mxPoint x="2290" y="180" as="targetPoint" />
          </mxGeometry>
        </mxCell>
        <mxCell id="iTf2nIuXYR94NIQKGG5_-172" value="" style="verticalLabelPosition=bottom;shadow=0;dashed=0;align=center;html=1;verticalAlign=top;shape=mxgraph.electrical.transistors.npn_transistor_5;strokeWidth=3;" parent="1" vertex="1">
          <mxGeometry x="2465.7" y="170" width="64" height="100" as="geometry" />
        </mxCell>
        <mxCell id="iTf2nIuXYR94NIQKGG5_-173" value="" style="verticalLabelPosition=bottom;shadow=0;dashed=0;align=center;html=1;verticalAlign=top;shape=mxgraph.electrical.transistors.pnp_transistor_5;flipH=0;strokeWidth=3;" parent="1" vertex="1">
          <mxGeometry x="2536" y="120" width="64" height="100" as="geometry" />
        </mxCell>
        <mxCell id="iTf2nIuXYR94NIQKGG5_-174" value="" style="endArrow=none;html=1;rounded=0;entryX=0.063;entryY=0.5;entryDx=0;entryDy=0;entryPerimeter=0;strokeWidth=3;" parent="1" target="iTf2nIuXYR94NIQKGG5_-173" edge="1">
          <mxGeometry width="50" height="50" relative="1" as="geometry">
            <mxPoint x="2529.7" y="170" as="sourcePoint" />
            <mxPoint x="2529.7" y="120" as="targetPoint" />
          </mxGeometry>
        </mxCell>
        <mxCell id="iTf2nIuXYR94NIQKGG5_-175" value="" style="endArrow=none;html=1;rounded=0;entryX=0;entryY=0.5;entryDx=0;entryDy=0;entryPerimeter=0;strokeWidth=3;" parent="1" target="iTf2nIuXYR94NIQKGG5_-172" edge="1">
          <mxGeometry width="50" height="50" relative="1" as="geometry">
            <mxPoint x="2290" y="220" as="sourcePoint" />
            <mxPoint x="2340" y="170" as="targetPoint" />
          </mxGeometry>
        </mxCell>
        <mxCell id="iTf2nIuXYR94NIQKGG5_-178" value="" style="endArrow=none;html=1;rounded=0;strokeWidth=3;" parent="1" edge="1">
          <mxGeometry width="50" height="50" relative="1" as="geometry">
            <mxPoint x="2530" y="270" as="sourcePoint" />
            <mxPoint x="2600" y="270" as="targetPoint" />
          </mxGeometry>
        </mxCell>
        <mxCell id="iTf2nIuXYR94NIQKGG5_-189" value="" style="pointerEvents=1;verticalLabelPosition=bottom;shadow=0;dashed=0;align=center;html=1;verticalAlign=top;shape=mxgraph.electrical.resistors.resistor_2;direction=south;strokeWidth=3;" parent="1" vertex="1">
          <mxGeometry x="2590" y="375" width="20" height="80" as="geometry" />
        </mxCell>
        <mxCell id="iTf2nIuXYR94NIQKGG5_-190" value="" style="pointerEvents=1;verticalLabelPosition=bottom;shadow=0;dashed=0;align=center;html=1;verticalAlign=top;shape=mxgraph.electrical.resistors.resistor_2;direction=west;strokeWidth=3;" parent="1" vertex="1">
          <mxGeometry x="2465.7" y="375" width="80" height="20" as="geometry" />
        </mxCell>
        <mxCell id="iTf2nIuXYR94NIQKGG5_-191" value="" style="pointerEvents=1;verticalLabelPosition=bottom;shadow=0;dashed=0;align=center;html=1;verticalAlign=top;shape=mxgraph.electrical.resistors.resistor_2;direction=south;strokeWidth=3;" parent="1" vertex="1">
          <mxGeometry x="2410" y="385" width="20" height="80" as="geometry" />
        </mxCell>
        <mxCell id="iTf2nIuXYR94NIQKGG5_-192" value="" style="verticalLabelPosition=bottom;shadow=0;dashed=0;align=center;html=1;verticalAlign=top;shape=mxgraph.electrical.transistors.npn_transistor_5;flipH=1;strokeWidth=3;" parent="1" vertex="1">
          <mxGeometry x="2289.81" y="335" width="64" height="100" as="geometry" />
        </mxCell>
        <mxCell id="iTf2nIuXYR94NIQKGG5_-193" value="" style="endArrow=none;html=1;rounded=0;entryX=1;entryY=0.5;entryDx=0;entryDy=0;entryPerimeter=0;strokeWidth=3;" parent="1" target="iTf2nIuXYR94NIQKGG5_-190" edge="1">
          <mxGeometry width="50" height="50" relative="1" as="geometry">
            <mxPoint x="2350" y="385" as="sourcePoint" />
            <mxPoint x="2400" y="335" as="targetPoint" />
          </mxGeometry>
        </mxCell>
        <mxCell id="iTf2nIuXYR94NIQKGG5_-194" value="" style="endArrow=none;html=1;rounded=0;entryX=0.125;entryY=0.5;entryDx=0;entryDy=0;entryPerimeter=0;strokeWidth=3;" parent="1" target="iTf2nIuXYR94NIQKGG5_-189" edge="1">
          <mxGeometry width="50" height="50" relative="1" as="geometry">
            <mxPoint x="2540" y="385" as="sourcePoint" />
            <mxPoint x="2590" y="335" as="targetPoint" />
          </mxGeometry>
        </mxCell>
        <mxCell id="iTf2nIuXYR94NIQKGG5_-195" value="" style="verticalLabelPosition=bottom;shadow=0;dashed=0;align=center;html=1;verticalAlign=top;shape=mxgraph.electrical.transistors.npn_transistor_5;strokeWidth=3;" parent="1" vertex="1">
          <mxGeometry x="2076.2" y="335" width="64" height="100" as="geometry" />
        </mxCell>
        <mxCell id="iTf2nIuXYR94NIQKGG5_-196" value="" style="endArrow=none;html=1;rounded=0;exitX=1;exitY=0;exitDx=0;exitDy=0;exitPerimeter=0;strokeWidth=3;" parent="1" source="iTf2nIuXYR94NIQKGG5_-195" edge="1">
          <mxGeometry width="50" height="50" relative="1" as="geometry">
            <mxPoint x="2090" y="230" as="sourcePoint" />
            <mxPoint x="2140" y="180" as="targetPoint" />
          </mxGeometry>
        </mxCell>
        <mxCell id="iTf2nIuXYR94NIQKGG5_-197" value="" style="verticalLabelPosition=bottom;shadow=0;dashed=0;align=center;fillColor=strokeColor;html=1;verticalAlign=top;strokeWidth=3;shape=mxgraph.electrical.miscellaneous.monocell_battery;rotation=-90;portConstraintRotation=0;" parent="1" vertex="1">
          <mxGeometry x="1990" y="395" width="60" height="40" as="geometry" />
        </mxCell>
        <mxCell id="iTf2nIuXYR94NIQKGG5_-198" value="" style="endArrow=none;html=1;rounded=0;strokeWidth=3;" parent="1" target="iTf2nIuXYR94NIQKGG5_-195" edge="1">
          <mxGeometry width="50" height="50" relative="1" as="geometry">
            <mxPoint x="2020" y="385" as="sourcePoint" />
            <mxPoint x="2070" y="335" as="targetPoint" />
          </mxGeometry>
        </mxCell>
        <mxCell id="iTf2nIuXYR94NIQKGG5_-199" value="" style="endArrow=none;html=1;rounded=0;strokeWidth=3;" parent="1" edge="1">
          <mxGeometry width="50" height="50" relative="1" as="geometry">
            <mxPoint x="2140" y="465" as="sourcePoint" />
            <mxPoint x="2140" y="425" as="targetPoint" />
          </mxGeometry>
        </mxCell>
        <mxCell id="iTf2nIuXYR94NIQKGG5_-200" value="" style="endArrow=none;html=1;rounded=0;strokeWidth=3;" parent="1" edge="1">
          <mxGeometry width="50" height="50" relative="1" as="geometry">
            <mxPoint x="2290" y="465" as="sourcePoint" />
            <mxPoint x="2290" y="425" as="targetPoint" />
          </mxGeometry>
        </mxCell>
        <mxCell id="iTf2nIuXYR94NIQKGG5_-201" value="" style="endArrow=none;html=1;rounded=0;strokeWidth=3;" parent="1" edge="1">
          <mxGeometry width="50" height="50" relative="1" as="geometry">
            <mxPoint x="2140" y="465" as="sourcePoint" />
            <mxPoint x="2290" y="465" as="targetPoint" />
          </mxGeometry>
        </mxCell>
        <mxCell id="iTf2nIuXYR94NIQKGG5_-202" value="" style="endArrow=none;html=1;rounded=0;strokeWidth=3;" parent="1" edge="1">
          <mxGeometry width="50" height="50" relative="1" as="geometry">
            <mxPoint x="2140" y="220" as="sourcePoint" />
            <mxPoint x="2220" y="220" as="targetPoint" />
          </mxGeometry>
        </mxCell>
        <mxCell id="iTf2nIuXYR94NIQKGG5_-203" value="" style="endArrow=none;html=1;rounded=0;strokeWidth=3;" parent="1" edge="1">
          <mxGeometry width="50" height="50" relative="1" as="geometry">
            <mxPoint x="2220" y="220" as="sourcePoint" />
            <mxPoint x="2220" y="140" as="targetPoint" />
          </mxGeometry>
        </mxCell>
        <mxCell id="iTf2nIuXYR94NIQKGG5_-206" value="" style="pointerEvents=1;verticalLabelPosition=bottom;shadow=0;dashed=0;align=center;html=1;verticalAlign=top;shape=mxgraph.electrical.resistors.resistor_2;direction=south;strokeWidth=3;" parent="1" vertex="1">
          <mxGeometry x="2207.81" y="465" width="20" height="80" as="geometry" />
        </mxCell>
        <mxCell id="iTf2nIuXYR94NIQKGG5_-210" value="" style="endArrow=none;html=1;rounded=0;strokeWidth=3;" parent="1" edge="1">
          <mxGeometry width="50" height="50" relative="1" as="geometry">
            <mxPoint x="2600" y="120" as="sourcePoint" />
            <mxPoint x="2600" y="60" as="targetPoint" />
          </mxGeometry>
        </mxCell>
        <mxCell id="iTf2nIuXYR94NIQKGG5_-211" value="" style="pointerEvents=1;verticalLabelPosition=bottom;shadow=0;dashed=0;align=center;html=1;verticalAlign=top;shape=mxgraph.electrical.signal_sources.signal_ground;strokeWidth=3;" parent="1" vertex="1">
          <mxGeometry x="1925.65" y="155" width="28.7" height="20" as="geometry" />
        </mxCell>
        <mxCell id="iTf2nIuXYR94NIQKGG5_-212" value="" style="pointerEvents=1;verticalLabelPosition=bottom;shadow=0;dashed=0;align=center;html=1;verticalAlign=top;shape=mxgraph.electrical.signal_sources.signal_ground;strokeWidth=3;" parent="1" vertex="1">
          <mxGeometry x="2005.65" y="435" width="28.7" height="20" as="geometry" />
        </mxCell>
        <mxCell id="iTf2nIuXYR94NIQKGG5_-214" value="" style="pointerEvents=1;verticalLabelPosition=bottom;shadow=0;dashed=0;align=center;html=1;verticalAlign=top;shape=mxgraph.electrical.signal_sources.signal_ground;strokeWidth=3;" parent="1" vertex="1">
          <mxGeometry x="2203.81" y="540" width="28.7" height="20" as="geometry" />
        </mxCell>
        <mxCell id="iTf2nIuXYR94NIQKGG5_-215" value="" style="pointerEvents=1;verticalLabelPosition=bottom;shadow=0;dashed=0;align=center;html=1;verticalAlign=top;shape=mxgraph.electrical.signal_sources.signal_ground;strokeWidth=3;" parent="1" vertex="1">
          <mxGeometry x="2405.65" y="455" width="28.7" height="20" as="geometry" />
        </mxCell>
        <mxCell id="iTf2nIuXYR94NIQKGG5_-216" value="" style="pointerEvents=1;verticalLabelPosition=bottom;shadow=0;dashed=0;align=center;html=1;verticalAlign=top;shape=mxgraph.electrical.signal_sources.signal_ground;strokeWidth=3;" parent="1" vertex="1">
          <mxGeometry x="2585.65" y="455" width="28.7" height="20" as="geometry" />
        </mxCell>
        <mxCell id="iTf2nIuXYR94NIQKGG5_-217" value="" style="endArrow=none;html=1;rounded=0;entryX=0.897;entryY=0.496;entryDx=0;entryDy=0;entryPerimeter=0;strokeWidth=3;" parent="1" target="iTf2nIuXYR94NIQKGG5_-189" edge="1">
          <mxGeometry width="50" height="50" relative="1" as="geometry">
            <mxPoint x="2600" y="459.8899999999999" as="sourcePoint" />
            <mxPoint x="2640" y="459.8899999999999" as="targetPoint" />
          </mxGeometry>
        </mxCell>
        <mxCell id="iTf2nIuXYR94NIQKGG5_-219" value="Q3&lt;div&gt;BC547C&lt;/div&gt;" style="text;html=1;align=center;verticalAlign=middle;whiteSpace=wrap;rounded=0;fontFamily=Times New Roman;fontSize=15;" parent="1" vertex="1">
          <mxGeometry x="2507" y="205" width="70" height="30" as="geometry" />
        </mxCell>
        <mxCell id="iTf2nIuXYR94NIQKGG5_-220" value="Q6&lt;div&gt;MJE2955T&lt;/div&gt;" style="text;html=1;align=center;verticalAlign=middle;whiteSpace=wrap;rounded=0;fontFamily=Times New Roman;fontSize=15;" parent="1" vertex="1">
          <mxGeometry x="2580" y="155" width="70" height="30" as="geometry" />
        </mxCell>
        <mxCell id="iTf2nIuXYR94NIQKGG5_-221" value="Q5&lt;div&gt;BC557C&lt;/div&gt;" style="text;html=1;align=center;verticalAlign=middle;whiteSpace=wrap;rounded=0;fontFamily=Times New Roman;fontSize=15;" parent="1" vertex="1">
          <mxGeometry x="2270" y="125" width="70" height="30" as="geometry" />
        </mxCell>
        <mxCell id="iTf2nIuXYR94NIQKGG5_-222" value="Q4&lt;div&gt;BC557C&lt;/div&gt;" style="text;html=1;align=center;verticalAlign=middle;whiteSpace=wrap;rounded=0;fontFamily=Times New Roman;fontSize=15;" parent="1" vertex="1">
          <mxGeometry x="2090" y="125" width="70" height="30" as="geometry" />
        </mxCell>
        <mxCell id="iTf2nIuXYR94NIQKGG5_-223" value="Q1&lt;div&gt;BC547C&lt;/div&gt;" style="text;html=1;align=center;verticalAlign=middle;whiteSpace=wrap;rounded=0;fontFamily=Times New Roman;fontSize=15;" parent="1" vertex="1">
          <mxGeometry x="2120" y="370" width="70" height="30" as="geometry" />
        </mxCell>
        <mxCell id="iTf2nIuXYR94NIQKGG5_-224" value="Q2&lt;div&gt;BC547C&lt;/div&gt;" style="text;html=1;align=center;verticalAlign=middle;whiteSpace=wrap;rounded=0;fontFamily=Times New Roman;fontSize=15;" parent="1" vertex="1">
          <mxGeometry x="2240" y="370" width="70" height="30" as="geometry" />
        </mxCell>
        <mxCell id="iTf2nIuXYR94NIQKGG5_-226" value="Vin&lt;br&gt;&lt;div&gt;10V&lt;/div&gt;" style="text;html=1;align=center;verticalAlign=middle;whiteSpace=wrap;rounded=0;fontFamily=Times New Roman;fontSize=15;" parent="1" vertex="1">
          <mxGeometry x="1954.35" y="115" width="35.65" height="30" as="geometry" />
        </mxCell>
        <mxCell id="iTf2nIuXYR94NIQKGG5_-227" value="Vref&lt;br&gt;&lt;div&gt;2V&lt;/div&gt;" style="text;html=1;align=center;verticalAlign=middle;whiteSpace=wrap;rounded=0;fontFamily=Times New Roman;fontSize=15;" parent="1" vertex="1">
          <mxGeometry x="2034.35" y="400" width="35.65" height="30" as="geometry" />
        </mxCell>
        <mxCell id="iTf2nIuXYR94NIQKGG5_-229" value="R3&lt;div&gt;2kÎ©&lt;/div&gt;" style="text;html=1;align=center;verticalAlign=middle;whiteSpace=wrap;rounded=0;fontFamily=Times New Roman;fontSize=15;" parent="1" vertex="1">
          <mxGeometry x="2430.05" y="410" width="35.65" height="30" as="geometry" />
        </mxCell>
        <mxCell id="iTf2nIuXYR94NIQKGG5_-230" value="R2&lt;div&gt;3kÎ©&lt;/div&gt;" style="text;html=1;align=center;verticalAlign=middle;whiteSpace=wrap;rounded=0;fontFamily=Times New Roman;fontSize=15;" parent="1" vertex="1">
          <mxGeometry x="2487.88" y="400" width="35.65" height="30" as="geometry" />
        </mxCell>
        <mxCell id="iTf2nIuXYR94NIQKGG5_-231" value="RL" style="text;html=1;align=center;verticalAlign=middle;whiteSpace=wrap;rounded=0;fontFamily=Times New Roman;fontSize=15;" parent="1" vertex="1">
          <mxGeometry x="2560" y="405" width="30" height="30" as="geometry" />
        </mxCell>
        <mxCell id="iTf2nIuXYR94NIQKGG5_-235" value="R1&lt;div&gt;1.3kÎ©&lt;/div&gt;" style="text;html=1;align=center;verticalAlign=middle;whiteSpace=wrap;rounded=0;fontFamily=Times New Roman;fontSize=15;" parent="1" vertex="1">
          <mxGeometry x="2237.81" y="492.5" width="35.65" height="30" as="geometry" />
        </mxCell>
        <mxCell id="iTf2nIuXYR94NIQKGG5_-237" value="" style="endArrow=none;html=1;rounded=0;entryX=1;entryY=1;entryDx=0;entryDy=0;entryPerimeter=0;strokeWidth=3;" parent="1" target="iTf2nIuXYR94NIQKGG5_-173" edge="1">
          <mxGeometry width="50" height="50" relative="1" as="geometry">
            <mxPoint x="2600" y="370" as="sourcePoint" />
            <mxPoint x="2650" y="240" as="targetPoint" />
          </mxGeometry>
        </mxCell>
        <mxCell id="iTf2nIuXYR94NIQKGG5_-238" value="" style="endArrow=none;html=1;rounded=0;entryX=1;entryY=0.5;entryDx=0;entryDy=0;entryPerimeter=0;strokeWidth=3;" parent="1" edge="1">
          <mxGeometry width="50" height="50" relative="1" as="geometry">
            <mxPoint x="2600" y="390" as="sourcePoint" />
            <mxPoint x="2600" y="365" as="targetPoint" />
          </mxGeometry>
        </mxCell>
        <mxCell id="iTf2nIuXYR94NIQKGG5_-239" value="" style="verticalLabelPosition=bottom;shadow=0;dashed=0;align=center;fillColor=strokeColor;html=1;verticalAlign=top;strokeWidth=3;shape=mxgraph.electrical.miscellaneous.monocell_battery;rotation=-90;portConstraintRotation=0;" parent="1" vertex="1">
          <mxGeometry x="2860" y="130" width="60" height="40" as="geometry" />
        </mxCell>
        <mxCell id="iTf2nIuXYR94NIQKGG5_-240" value="" style="endArrow=none;html=1;rounded=0;strokeWidth=3;" parent="1" edge="1">
          <mxGeometry width="50" height="50" relative="1" as="geometry">
            <mxPoint x="2890" y="120" as="sourcePoint" />
            <mxPoint x="2890" y="80" as="targetPoint" />
          </mxGeometry>
        </mxCell>
        <mxCell id="iTf2nIuXYR94NIQKGG5_-241" value="" style="verticalLabelPosition=bottom;shadow=0;dashed=0;align=center;html=1;verticalAlign=top;shape=mxgraph.electrical.transistors.pnp_transistor_5;strokeWidth=3;" parent="1" vertex="1">
          <mxGeometry x="3176.2" y="110" width="64" height="100" as="geometry" />
        </mxCell>
        <mxCell id="iTf2nIuXYR94NIQKGG5_-242" value="" style="verticalLabelPosition=bottom;shadow=0;dashed=0;align=center;html=1;verticalAlign=top;shape=mxgraph.electrical.transistors.pnp_transistor_5;flipH=1;strokeWidth=3;" parent="1" vertex="1">
          <mxGeometry x="3089.81" y="110" width="64" height="100" as="geometry" />
        </mxCell>
        <mxCell id="iTf2nIuXYR94NIQKGG5_-243" value="" style="endArrow=none;html=1;rounded=0;entryX=0;entryY=0.5;entryDx=0;entryDy=0;entryPerimeter=0;strokeWidth=3;" parent="1" target="iTf2nIuXYR94NIQKGG5_-241" edge="1">
          <mxGeometry width="50" height="50" relative="1" as="geometry">
            <mxPoint x="3140" y="160" as="sourcePoint" />
            <mxPoint x="3190" y="110" as="targetPoint" />
          </mxGeometry>
        </mxCell>
        <mxCell id="iTf2nIuXYR94NIQKGG5_-244" value="" style="endArrow=none;html=1;rounded=0;strokeWidth=3;" parent="1" edge="1">
          <mxGeometry width="50" height="50" relative="1" as="geometry">
            <mxPoint x="2890" y="80" as="sourcePoint" />
            <mxPoint x="3550" y="80" as="targetPoint" />
          </mxGeometry>
        </mxCell>
        <mxCell id="iTf2nIuXYR94NIQKGG5_-245" value="" style="endArrow=none;html=1;rounded=0;strokeWidth=3;" parent="1" edge="1">
          <mxGeometry width="50" height="50" relative="1" as="geometry">
            <mxPoint x="3090" y="120" as="sourcePoint" />
            <mxPoint x="3090" y="80" as="targetPoint" />
          </mxGeometry>
        </mxCell>
        <mxCell id="iTf2nIuXYR94NIQKGG5_-246" value="" style="endArrow=none;html=1;rounded=0;strokeWidth=3;" parent="1" edge="1">
          <mxGeometry width="50" height="50" relative="1" as="geometry">
            <mxPoint x="3240" y="120" as="sourcePoint" />
            <mxPoint x="3240" y="80" as="targetPoint" />
          </mxGeometry>
        </mxCell>
        <mxCell id="iTf2nIuXYR94NIQKGG5_-247" value="" style="endArrow=none;html=1;rounded=0;exitX=1;exitY=0;exitDx=0;exitDy=0;exitPerimeter=0;strokeWidth=3;" parent="1" source="iTf2nIuXYR94NIQKGG5_-268" edge="1">
          <mxGeometry width="50" height="50" relative="1" as="geometry">
            <mxPoint x="3240" y="420" as="sourcePoint" />
            <mxPoint x="3240" y="200" as="targetPoint" />
          </mxGeometry>
        </mxCell>
        <mxCell id="iTf2nIuXYR94NIQKGG5_-248" value="" style="verticalLabelPosition=bottom;shadow=0;dashed=0;align=center;html=1;verticalAlign=top;shape=mxgraph.electrical.transistors.npn_transistor_5;strokeWidth=3;" parent="1" vertex="1">
          <mxGeometry x="3415.7" y="190" width="64" height="100" as="geometry" />
        </mxCell>
        <mxCell id="iTf2nIuXYR94NIQKGG5_-249" value="" style="verticalLabelPosition=bottom;shadow=0;dashed=0;align=center;html=1;verticalAlign=top;shape=mxgraph.electrical.transistors.pnp_transistor_5;flipH=0;strokeWidth=3;" parent="1" vertex="1">
          <mxGeometry x="3486" y="140" width="64" height="100" as="geometry" />
        </mxCell>
        <mxCell id="iTf2nIuXYR94NIQKGG5_-250" value="" style="endArrow=none;html=1;rounded=0;entryX=0.063;entryY=0.5;entryDx=0;entryDy=0;entryPerimeter=0;strokeWidth=3;" parent="1" target="iTf2nIuXYR94NIQKGG5_-249" edge="1">
          <mxGeometry width="50" height="50" relative="1" as="geometry">
            <mxPoint x="3479.7" y="190" as="sourcePoint" />
            <mxPoint x="3479.7" y="140" as="targetPoint" />
          </mxGeometry>
        </mxCell>
        <mxCell id="iTf2nIuXYR94NIQKGG5_-251" value="" style="endArrow=none;html=1;rounded=0;entryX=0;entryY=0.5;entryDx=0;entryDy=0;entryPerimeter=0;strokeWidth=3;" parent="1" target="iTf2nIuXYR94NIQKGG5_-248" edge="1">
          <mxGeometry width="50" height="50" relative="1" as="geometry">
            <mxPoint x="3240" y="240" as="sourcePoint" />
            <mxPoint x="3290" y="190" as="targetPoint" />
          </mxGeometry>
        </mxCell>
        <mxCell id="iTf2nIuXYR94NIQKGG5_-252" value="" style="verticalLabelPosition=bottom;shadow=0;dashed=0;align=center;html=1;verticalAlign=top;shape=mxgraph.electrical.transistors.npn_transistor_5;flipH=1;strokeWidth=3;" parent="1" vertex="1">
          <mxGeometry x="3369.8" y="295" width="64" height="100" as="geometry" />
        </mxCell>
        <mxCell id="iTf2nIuXYR94NIQKGG5_-253" value="" style="endArrow=none;html=1;rounded=0;strokeWidth=3;" parent="1" edge="1">
          <mxGeometry width="50" height="50" relative="1" as="geometry">
            <mxPoint x="3370" y="300" as="sourcePoint" />
            <mxPoint x="3370" y="240" as="targetPoint" />
          </mxGeometry>
        </mxCell>
        <mxCell id="iTf2nIuXYR94NIQKGG5_-254" value="" style="endArrow=none;html=1;rounded=0;strokeWidth=3;" parent="1" edge="1">
          <mxGeometry width="50" height="50" relative="1" as="geometry">
            <mxPoint x="3480" y="290" as="sourcePoint" />
            <mxPoint x="3550" y="290" as="targetPoint" />
          </mxGeometry>
        </mxCell>
        <mxCell id="iTf2nIuXYR94NIQKGG5_-256" value="" style="pointerEvents=1;verticalLabelPosition=bottom;shadow=0;dashed=0;align=center;html=1;verticalAlign=top;shape=mxgraph.electrical.resistors.resistor_2;direction=south;strokeWidth=3;" parent="1" vertex="1">
          <mxGeometry x="3540" y="345" width="20" height="80" as="geometry" />
        </mxCell>
        <mxCell id="iTf2nIuXYR94NIQKGG5_-258" value="" style="endArrow=none;html=1;rounded=0;strokeWidth=3;" parent="1" edge="1">
          <mxGeometry width="50" height="50" relative="1" as="geometry">
            <mxPoint x="3440" y="345" as="sourcePoint" />
            <mxPoint x="3550" y="345" as="targetPoint" />
          </mxGeometry>
        </mxCell>
        <mxCell id="iTf2nIuXYR94NIQKGG5_-259" value="" style="endArrow=none;html=1;rounded=0;exitX=0;exitY=0.5;exitDx=0;exitDy=0;exitPerimeter=0;strokeWidth=3;" parent="1" source="iTf2nIuXYR94NIQKGG5_-256" edge="1">
          <mxGeometry width="50" height="50" relative="1" as="geometry">
            <mxPoint x="3500" y="290" as="sourcePoint" />
            <mxPoint x="3550" y="240" as="targetPoint" />
          </mxGeometry>
        </mxCell>
        <mxCell id="iTf2nIuXYR94NIQKGG5_-260" value="" style="endArrow=none;html=1;rounded=0;entryX=1;entryY=0.5;entryDx=0;entryDy=0;entryPerimeter=0;strokeWidth=3;" parent="1" edge="1">
          <mxGeometry width="50" height="50" relative="1" as="geometry">
            <mxPoint x="3422.7" y="345" as="sourcePoint" />
            <mxPoint x="3447" y="345" as="targetPoint" />
          </mxGeometry>
        </mxCell>
        <mxCell id="iTf2nIuXYR94NIQKGG5_-262" value="" style="endArrow=none;html=1;rounded=0;strokeWidth=3;" parent="1" edge="1">
          <mxGeometry width="50" height="50" relative="1" as="geometry">
            <mxPoint x="3370" y="440" as="sourcePoint" />
            <mxPoint x="3370" y="390" as="targetPoint" />
          </mxGeometry>
        </mxCell>
        <mxCell id="iTf2nIuXYR94NIQKGG5_-263" value="" style="endArrow=none;html=1;rounded=0;strokeWidth=3;" parent="1" edge="1">
          <mxGeometry width="50" height="50" relative="1" as="geometry">
            <mxPoint x="3369.8" y="438.82" as="sourcePoint" />
            <mxPoint x="3549.8" y="438.82" as="targetPoint" />
          </mxGeometry>
        </mxCell>
        <mxCell id="iTf2nIuXYR94NIQKGG5_-264" value="" style="endArrow=none;html=1;rounded=0;strokeWidth=3;exitX=0.125;exitY=0.502;exitDx=0;exitDy=0;exitPerimeter=0;" parent="1" source="iTf2nIuXYR94NIQKGG5_-265" edge="1">
          <mxGeometry width="50" height="50" relative="1" as="geometry">
            <mxPoint x="3550" y="520" as="sourcePoint" />
            <mxPoint x="3550" y="420" as="targetPoint" />
          </mxGeometry>
        </mxCell>
        <mxCell id="iTf2nIuXYR94NIQKGG5_-265" value="" style="pointerEvents=1;verticalLabelPosition=bottom;shadow=0;dashed=0;align=center;html=1;verticalAlign=top;shape=mxgraph.electrical.resistors.resistor_2;direction=south;strokeWidth=3;" parent="1" vertex="1">
          <mxGeometry x="3540" y="475" width="20" height="80" as="geometry" />
        </mxCell>
        <mxCell id="iTf2nIuXYR94NIQKGG5_-266" value="" style="pointerEvents=1;verticalLabelPosition=bottom;shadow=0;dashed=0;align=center;html=1;verticalAlign=top;shape=mxgraph.electrical.resistors.resistor_2;direction=west;strokeWidth=3;" parent="1" vertex="1">
          <mxGeometry x="3415.7" y="475" width="80" height="20" as="geometry" />
        </mxCell>
        <mxCell id="iTf2nIuXYR94NIQKGG5_-267" value="" style="pointerEvents=1;verticalLabelPosition=bottom;shadow=0;dashed=0;align=center;html=1;verticalAlign=top;shape=mxgraph.electrical.resistors.resistor_2;direction=south;strokeWidth=3;" parent="1" vertex="1">
          <mxGeometry x="3360" y="485" width="20" height="80" as="geometry" />
        </mxCell>
        <mxCell id="iTf2nIuXYR94NIQKGG5_-268" value="" style="verticalLabelPosition=bottom;shadow=0;dashed=0;align=center;html=1;verticalAlign=top;shape=mxgraph.electrical.transistors.npn_transistor_5;flipH=1;strokeWidth=3;" parent="1" vertex="1">
          <mxGeometry x="3239.81" y="435" width="64" height="100" as="geometry" />
        </mxCell>
        <mxCell id="iTf2nIuXYR94NIQKGG5_-269" value="" style="endArrow=none;html=1;rounded=0;entryX=1;entryY=0.5;entryDx=0;entryDy=0;entryPerimeter=0;strokeWidth=3;" parent="1" target="iTf2nIuXYR94NIQKGG5_-266" edge="1">
          <mxGeometry width="50" height="50" relative="1" as="geometry">
            <mxPoint x="3300" y="485" as="sourcePoint" />
            <mxPoint x="3350" y="435" as="targetPoint" />
          </mxGeometry>
        </mxCell>
        <mxCell id="iTf2nIuXYR94NIQKGG5_-270" value="" style="endArrow=none;html=1;rounded=0;entryX=0.125;entryY=0.5;entryDx=0;entryDy=0;entryPerimeter=0;strokeWidth=3;" parent="1" target="iTf2nIuXYR94NIQKGG5_-265" edge="1">
          <mxGeometry width="50" height="50" relative="1" as="geometry">
            <mxPoint x="3490" y="485" as="sourcePoint" />
            <mxPoint x="3540" y="435" as="targetPoint" />
          </mxGeometry>
        </mxCell>
        <mxCell id="iTf2nIuXYR94NIQKGG5_-271" value="" style="verticalLabelPosition=bottom;shadow=0;dashed=0;align=center;html=1;verticalAlign=top;shape=mxgraph.electrical.transistors.npn_transistor_5;strokeWidth=3;" parent="1" vertex="1">
          <mxGeometry x="3026.2" y="435" width="64" height="100" as="geometry" />
        </mxCell>
        <mxCell id="iTf2nIuXYR94NIQKGG5_-272" value="" style="endArrow=none;html=1;rounded=0;exitX=1;exitY=0;exitDx=0;exitDy=0;exitPerimeter=0;strokeWidth=3;" parent="1" source="iTf2nIuXYR94NIQKGG5_-271" edge="1">
          <mxGeometry width="50" height="50" relative="1" as="geometry">
            <mxPoint x="3040" y="250" as="sourcePoint" />
            <mxPoint x="3090" y="200" as="targetPoint" />
          </mxGeometry>
        </mxCell>
        <mxCell id="iTf2nIuXYR94NIQKGG5_-273" value="" style="verticalLabelPosition=bottom;shadow=0;dashed=0;align=center;fillColor=strokeColor;html=1;verticalAlign=top;strokeWidth=3;shape=mxgraph.electrical.miscellaneous.monocell_battery;rotation=-90;portConstraintRotation=0;" parent="1" vertex="1">
          <mxGeometry x="2940" y="495" width="60" height="40" as="geometry" />
        </mxCell>
        <mxCell id="iTf2nIuXYR94NIQKGG5_-274" value="" style="endArrow=none;html=1;rounded=0;strokeWidth=3;" parent="1" target="iTf2nIuXYR94NIQKGG5_-271" edge="1">
          <mxGeometry width="50" height="50" relative="1" as="geometry">
            <mxPoint x="2970" y="485" as="sourcePoint" />
            <mxPoint x="3020" y="435" as="targetPoint" />
          </mxGeometry>
        </mxCell>
        <mxCell id="iTf2nIuXYR94NIQKGG5_-275" value="" style="endArrow=none;html=1;rounded=0;strokeWidth=3;" parent="1" edge="1">
          <mxGeometry width="50" height="50" relative="1" as="geometry">
            <mxPoint x="3090" y="565" as="sourcePoint" />
            <mxPoint x="3090" y="525" as="targetPoint" />
          </mxGeometry>
        </mxCell>
        <mxCell id="iTf2nIuXYR94NIQKGG5_-276" value="" style="endArrow=none;html=1;rounded=0;strokeWidth=3;" parent="1" edge="1">
          <mxGeometry width="50" height="50" relative="1" as="geometry">
            <mxPoint x="3240" y="565" as="sourcePoint" />
            <mxPoint x="3240" y="525" as="targetPoint" />
          </mxGeometry>
        </mxCell>
        <mxCell id="iTf2nIuXYR94NIQKGG5_-277" value="" style="endArrow=none;html=1;rounded=0;strokeWidth=3;" parent="1" edge="1">
          <mxGeometry width="50" height="50" relative="1" as="geometry">
            <mxPoint x="3090" y="565" as="sourcePoint" />
            <mxPoint x="3240" y="565" as="targetPoint" />
          </mxGeometry>
        </mxCell>
        <mxCell id="iTf2nIuXYR94NIQKGG5_-278" value="" style="endArrow=none;html=1;rounded=0;strokeWidth=3;" parent="1" edge="1">
          <mxGeometry width="50" height="50" relative="1" as="geometry">
            <mxPoint x="3090" y="240" as="sourcePoint" />
            <mxPoint x="3170" y="240" as="targetPoint" />
          </mxGeometry>
        </mxCell>
        <mxCell id="iTf2nIuXYR94NIQKGG5_-279" value="" style="endArrow=none;html=1;rounded=0;strokeWidth=3;" parent="1" edge="1">
          <mxGeometry width="50" height="50" relative="1" as="geometry">
            <mxPoint x="3170" y="240" as="sourcePoint" />
            <mxPoint x="3170" y="160" as="targetPoint" />
          </mxGeometry>
        </mxCell>
        <mxCell id="iTf2nIuXYR94NIQKGG5_-286" value="" style="endArrow=none;html=1;rounded=0;strokeWidth=3;" parent="1" edge="1">
          <mxGeometry width="50" height="50" relative="1" as="geometry">
            <mxPoint x="3550" y="140" as="sourcePoint" />
            <mxPoint x="3550" y="80" as="targetPoint" />
          </mxGeometry>
        </mxCell>
        <mxCell id="iTf2nIuXYR94NIQKGG5_-287" value="" style="pointerEvents=1;verticalLabelPosition=bottom;shadow=0;dashed=0;align=center;html=1;verticalAlign=top;shape=mxgraph.electrical.signal_sources.signal_ground;strokeWidth=3;" parent="1" vertex="1">
          <mxGeometry x="2875.65" y="175" width="28.7" height="20" as="geometry" />
        </mxCell>
        <mxCell id="iTf2nIuXYR94NIQKGG5_-288" value="" style="pointerEvents=1;verticalLabelPosition=bottom;shadow=0;dashed=0;align=center;html=1;verticalAlign=top;shape=mxgraph.electrical.signal_sources.signal_ground;strokeWidth=3;" parent="1" vertex="1">
          <mxGeometry x="2955.65" y="535" width="28.7" height="20" as="geometry" />
        </mxCell>
        <mxCell id="iTf2nIuXYR94NIQKGG5_-291" value="" style="pointerEvents=1;verticalLabelPosition=bottom;shadow=0;dashed=0;align=center;html=1;verticalAlign=top;shape=mxgraph.electrical.signal_sources.signal_ground;strokeWidth=3;" parent="1" vertex="1">
          <mxGeometry x="3355.65" y="555" width="28.7" height="20" as="geometry" />
        </mxCell>
        <mxCell id="iTf2nIuXYR94NIQKGG5_-292" value="" style="pointerEvents=1;verticalLabelPosition=bottom;shadow=0;dashed=0;align=center;html=1;verticalAlign=top;shape=mxgraph.electrical.signal_sources.signal_ground;strokeWidth=3;" parent="1" vertex="1">
          <mxGeometry x="3535.65" y="555" width="28.7" height="20" as="geometry" />
        </mxCell>
        <mxCell id="iTf2nIuXYR94NIQKGG5_-293" value="" style="endArrow=none;html=1;rounded=0;entryX=0.897;entryY=0.496;entryDx=0;entryDy=0;entryPerimeter=0;strokeWidth=3;" parent="1" target="iTf2nIuXYR94NIQKGG5_-265" edge="1">
          <mxGeometry width="50" height="50" relative="1" as="geometry">
            <mxPoint x="3550" y="559.89" as="sourcePoint" />
            <mxPoint x="3590" y="559.89" as="targetPoint" />
          </mxGeometry>
        </mxCell>
        <mxCell id="iTf2nIuXYR94NIQKGG5_-294" value="Q7&lt;div&gt;BC547C&lt;/div&gt;" style="text;html=1;align=center;verticalAlign=middle;whiteSpace=wrap;rounded=0;fontFamily=Times New Roman;fontSize=15;" parent="1" vertex="1">
          <mxGeometry x="3320" y="330" width="70" height="30" as="geometry" />
        </mxCell>
        <mxCell id="iTf2nIuXYR94NIQKGG5_-295" value="Q3&lt;div&gt;BC547C&lt;/div&gt;" style="text;html=1;align=center;verticalAlign=middle;whiteSpace=wrap;rounded=0;fontFamily=Times New Roman;fontSize=15;" parent="1" vertex="1">
          <mxGeometry x="3457" y="225" width="70" height="30" as="geometry" />
        </mxCell>
        <mxCell id="iTf2nIuXYR94NIQKGG5_-296" value="Q6&lt;div&gt;MJE2955T&lt;/div&gt;" style="text;html=1;align=center;verticalAlign=middle;whiteSpace=wrap;rounded=0;fontFamily=Times New Roman;fontSize=15;" parent="1" vertex="1">
          <mxGeometry x="3530" y="175" width="70" height="30" as="geometry" />
        </mxCell>
        <mxCell id="iTf2nIuXYR94NIQKGG5_-297" value="Q5&lt;div&gt;BC557C&lt;/div&gt;" style="text;html=1;align=center;verticalAlign=middle;whiteSpace=wrap;rounded=0;fontFamily=Times New Roman;fontSize=15;" parent="1" vertex="1">
          <mxGeometry x="3220" y="145" width="70" height="30" as="geometry" />
        </mxCell>
        <mxCell id="iTf2nIuXYR94NIQKGG5_-298" value="Q4&lt;div&gt;BC557C&lt;/div&gt;" style="text;html=1;align=center;verticalAlign=middle;whiteSpace=wrap;rounded=0;fontFamily=Times New Roman;fontSize=15;" parent="1" vertex="1">
          <mxGeometry x="3040" y="145" width="70" height="30" as="geometry" />
        </mxCell>
        <mxCell id="iTf2nIuXYR94NIQKGG5_-299" value="Q1&lt;div&gt;BC547C&lt;/div&gt;" style="text;html=1;align=center;verticalAlign=middle;whiteSpace=wrap;rounded=0;fontFamily=Times New Roman;fontSize=15;" parent="1" vertex="1">
          <mxGeometry x="3070" y="470" width="70" height="30" as="geometry" />
        </mxCell>
        <mxCell id="iTf2nIuXYR94NIQKGG5_-300" value="Q2&lt;div&gt;BC547C&lt;/div&gt;" style="text;html=1;align=center;verticalAlign=middle;whiteSpace=wrap;rounded=0;fontFamily=Times New Roman;fontSize=15;" parent="1" vertex="1">
          <mxGeometry x="3190" y="470" width="70" height="30" as="geometry" />
        </mxCell>
        <mxCell id="iTf2nIuXYR94NIQKGG5_-302" value="Vin&lt;br&gt;&lt;div&gt;10V&lt;/div&gt;" style="text;html=1;align=center;verticalAlign=middle;whiteSpace=wrap;rounded=0;fontFamily=Times New Roman;fontSize=15;" parent="1" vertex="1">
          <mxGeometry x="2904.35" y="135" width="35.65" height="30" as="geometry" />
        </mxCell>
        <mxCell id="iTf2nIuXYR94NIQKGG5_-303" value="Vref&lt;br&gt;&lt;div&gt;2V&lt;/div&gt;" style="text;html=1;align=center;verticalAlign=middle;whiteSpace=wrap;rounded=0;fontFamily=Times New Roman;fontSize=15;" parent="1" vertex="1">
          <mxGeometry x="2984.35" y="500" width="35.65" height="30" as="geometry" />
        </mxCell>
        <mxCell id="iTf2nIuXYR94NIQKGG5_-305" value="R3&lt;div&gt;2kÎ©&lt;/div&gt;" style="text;html=1;align=center;verticalAlign=middle;whiteSpace=wrap;rounded=0;fontFamily=Times New Roman;fontSize=15;" parent="1" vertex="1">
          <mxGeometry x="3380.05" y="510" width="35.65" height="30" as="geometry" />
        </mxCell>
        <mxCell id="iTf2nIuXYR94NIQKGG5_-306" value="R2&lt;div&gt;3kÎ©&lt;/div&gt;" style="text;html=1;align=center;verticalAlign=middle;whiteSpace=wrap;rounded=0;fontFamily=Times New Roman;fontSize=15;" parent="1" vertex="1">
          <mxGeometry x="3437.88" y="500" width="35.65" height="30" as="geometry" />
        </mxCell>
        <mxCell id="iTf2nIuXYR94NIQKGG5_-307" value="RL" style="text;html=1;align=center;verticalAlign=middle;whiteSpace=wrap;rounded=0;fontFamily=Times New Roman;fontSize=15;" parent="1" vertex="1">
          <mxGeometry x="3510" y="505" width="30" height="30" as="geometry" />
        </mxCell>
        <mxCell id="iTf2nIuXYR94NIQKGG5_-308" value="Rs&lt;div&gt;0.42Î©&lt;/div&gt;" style="text;html=1;align=center;verticalAlign=middle;whiteSpace=wrap;rounded=0;fontFamily=Times New Roman;fontSize=15;" parent="1" vertex="1">
          <mxGeometry x="3564.35" y="370" width="35.65" height="30" as="geometry" />
        </mxCell>
        <mxCell id="iTf2nIuXYR94NIQKGG5_-313" value="" style="pointerEvents=1;verticalLabelPosition=bottom;shadow=0;dashed=0;align=center;html=1;verticalAlign=top;shape=mxgraph.electrical.resistors.resistor_2;direction=south;strokeWidth=3;" parent="1" vertex="1">
          <mxGeometry x="3150.35" y="565" width="20" height="80" as="geometry" />
        </mxCell>
        <mxCell id="iTf2nIuXYR94NIQKGG5_-314" value="" style="pointerEvents=1;verticalLabelPosition=bottom;shadow=0;dashed=0;align=center;html=1;verticalAlign=top;shape=mxgraph.electrical.signal_sources.signal_ground;strokeWidth=3;" parent="1" vertex="1">
          <mxGeometry x="3146" y="640" width="28.7" height="20" as="geometry" />
        </mxCell>
        <mxCell id="iTf2nIuXYR94NIQKGG5_-315" value="R1&lt;div&gt;1.3kÎ©&lt;/div&gt;" style="text;html=1;align=center;verticalAlign=middle;whiteSpace=wrap;rounded=0;fontFamily=Times New Roman;fontSize=15;" parent="1" vertex="1">
          <mxGeometry x="3176.2" y="590" width="35.65" height="30" as="geometry" />
        </mxCell>
        <mxCell id="aQ-0biNOCQDJghbuDn7b-5" value="" style="endArrow=none;html=1;rounded=0;strokeWidth=3;strokeColor=light-dark(#1F77B4,#D7817E);" parent="1" edge="1">
          <mxGeometry width="50" height="50" relative="1" as="geometry">
            <mxPoint x="1900" y="200" as="sourcePoint" />
            <mxPoint x="2100" y="200" as="targetPoint" />
          </mxGeometry>
        </mxCell>
        <mxCell id="aQ-0biNOCQDJghbuDn7b-7" value="" style="endArrow=none;html=1;rounded=0;strokeWidth=3;strokeColor=light-dark(#1F77B4,#D7817E);" parent="1" edge="1">
          <mxGeometry width="50" height="50" relative="1" as="geometry">
            <mxPoint x="2100" y="580" as="sourcePoint" />
            <mxPoint x="2100" y="200" as="targetPoint" />
          </mxGeometry>
        </mxCell>
        <mxCell id="aQ-0biNOCQDJghbuDn7b-8" value="" style="endArrow=none;html=1;rounded=0;strokeWidth=3;strokeColor=light-dark(#1F77B4,#D7817E);" parent="1" edge="1">
          <mxGeometry width="50" height="50" relative="1" as="geometry">
            <mxPoint x="1900" y="200" as="sourcePoint" />
            <mxPoint x="1900" y="40" as="targetPoint" />
          </mxGeometry>
        </mxCell>
        <mxCell id="aQ-0biNOCQDJghbuDn7b-9" value="" style="endArrow=none;html=1;rounded=0;strokeWidth=3;strokeColor=light-dark(#1F77B4,#D7817E);" parent="1" edge="1">
          <mxGeometry width="50" height="50" relative="1" as="geometry">
            <mxPoint x="1900" y="40" as="sourcePoint" />
            <mxPoint x="2660" y="40" as="targetPoint" />
          </mxGeometry>
        </mxCell>
        <mxCell id="aQ-0biNOCQDJghbuDn7b-10" value="" style="endArrow=none;html=1;rounded=0;strokeWidth=3;strokeColor=light-dark(#1F77B4,#D7817E);" parent="1" edge="1">
          <mxGeometry width="50" height="50" relative="1" as="geometry">
            <mxPoint x="2660" y="320" as="sourcePoint" />
            <mxPoint x="2660" y="40" as="targetPoint" />
          </mxGeometry>
        </mxCell>
        <mxCell id="aQ-0biNOCQDJghbuDn7b-11" value="" style="endArrow=none;html=1;rounded=0;strokeWidth=3;strokeColor=light-dark(#1F77B4,#D7817E);" parent="1" edge="1">
          <mxGeometry width="50" height="50" relative="1" as="geometry">
            <mxPoint x="2340" y="320" as="sourcePoint" />
            <mxPoint x="2660" y="320" as="targetPoint" />
          </mxGeometry>
        </mxCell>
        <mxCell id="aQ-0biNOCQDJghbuDn7b-12" value="" style="endArrow=none;html=1;rounded=0;strokeWidth=3;strokeColor=light-dark(#1F77B4,#D7817E);" parent="1" edge="1">
          <mxGeometry width="50" height="50" relative="1" as="geometry">
            <mxPoint x="2340" y="580" as="sourcePoint" />
            <mxPoint x="2340" y="320" as="targetPoint" />
          </mxGeometry>
        </mxCell>
        <mxCell id="aQ-0biNOCQDJghbuDn7b-13" value="" style="endArrow=none;html=1;rounded=0;strokeWidth=3;strokeColor=light-dark(#1F77B4,#D7817E);" parent="1" edge="1">
          <mxGeometry width="50" height="50" relative="1" as="geometry">
            <mxPoint x="2100" y="580" as="sourcePoint" />
            <mxPoint x="2340" y="580" as="targetPoint" />
          </mxGeometry>
        </mxCell>
        <mxCell id="aQ-0biNOCQDJghbuDn7b-14" value="Gen" style="text;html=1;align=center;verticalAlign=middle;whiteSpace=wrap;rounded=0;fontColor=light-dark(#1F77B4,#D7817E);fontFamily=Times New Roman;fontStyle=1;fontSize=16;" parent="1" vertex="1">
          <mxGeometry x="2187.81" y="555" width="60" height="30" as="geometry" />
        </mxCell>
        <mxCell id="aQ-0biNOCQDJghbuDn7b-15" value="" style="endArrow=none;html=1;rounded=0;strokeWidth=3;strokeColor=light-dark(#1F77B4,#D7817E);" parent="1" edge="1">
          <mxGeometry width="50" height="50" relative="1" as="geometry">
            <mxPoint x="2380" y="500" as="sourcePoint" />
            <mxPoint x="2380" y="350" as="targetPoint" />
          </mxGeometry>
        </mxCell>
        <mxCell id="aQ-0biNOCQDJghbuDn7b-16" value="" style="endArrow=none;html=1;rounded=0;strokeWidth=3;strokeColor=light-dark(#1F77B4,#D7817E);" parent="1" edge="1">
          <mxGeometry width="50" height="50" relative="1" as="geometry">
            <mxPoint x="2380" y="350" as="sourcePoint" />
            <mxPoint x="2550" y="350" as="targetPoint" />
          </mxGeometry>
        </mxCell>
        <mxCell id="aQ-0biNOCQDJghbuDn7b-17" value="" style="endArrow=none;html=1;rounded=0;strokeWidth=3;strokeColor=light-dark(#1F77B4,#D7817E);" parent="1" edge="1">
          <mxGeometry width="50" height="50" relative="1" as="geometry">
            <mxPoint x="2380" y="500" as="sourcePoint" />
            <mxPoint x="2550" y="500" as="targetPoint" />
          </mxGeometry>
        </mxCell>
        <mxCell id="aQ-0biNOCQDJghbuDn7b-18" value="" style="endArrow=none;html=1;rounded=0;strokeWidth=3;strokeColor=light-dark(#1F77B4,#D7817E);" parent="1" edge="1">
          <mxGeometry width="50" height="50" relative="1" as="geometry">
            <mxPoint x="2550" y="500" as="sourcePoint" />
            <mxPoint x="2550" y="350" as="targetPoint" />
          </mxGeometry>
        </mxCell>
        <mxCell id="aQ-0biNOCQDJghbuDn7b-19" value="" style="endArrow=none;html=1;rounded=0;strokeWidth=3;strokeColor=light-dark(#1F77B4,#D7817E);" parent="1" edge="1">
          <mxGeometry width="50" height="50" relative="1" as="geometry">
            <mxPoint x="2560" y="500" as="sourcePoint" />
            <mxPoint x="2560" y="350" as="targetPoint" />
          </mxGeometry>
        </mxCell>
        <mxCell id="aQ-0biNOCQDJghbuDn7b-20" value="" style="endArrow=none;html=1;rounded=0;strokeWidth=3;strokeColor=light-dark(#1F77B4,#D7817E);" parent="1" edge="1">
          <mxGeometry width="50" height="50" relative="1" as="geometry">
            <mxPoint x="2560" y="350" as="sourcePoint" />
            <mxPoint x="2640" y="350" as="targetPoint" />
          </mxGeometry>
        </mxCell>
        <mxCell id="aQ-0biNOCQDJghbuDn7b-21" value="" style="endArrow=none;html=1;rounded=0;strokeWidth=3;strokeColor=light-dark(#1F77B4,#D7817E);" parent="1" edge="1">
          <mxGeometry width="50" height="50" relative="1" as="geometry">
            <mxPoint x="2640" y="500" as="sourcePoint" />
            <mxPoint x="2640" y="350" as="targetPoint" />
          </mxGeometry>
        </mxCell>
        <mxCell id="aQ-0biNOCQDJghbuDn7b-22" value="" style="endArrow=none;html=1;rounded=0;strokeWidth=3;strokeColor=light-dark(#1F77B4,#D7817E);" parent="1" edge="1">
          <mxGeometry width="50" height="50" relative="1" as="geometry">
            <mxPoint x="2560" y="499.6" as="sourcePoint" />
            <mxPoint x="2640" y="499.6" as="targetPoint" />
          </mxGeometry>
        </mxCell>
        <mxCell id="aQ-0biNOCQDJghbuDn7b-23" value="Realim" style="text;html=1;align=center;verticalAlign=middle;whiteSpace=wrap;rounded=0;fontColor=light-dark(#1F77B4,#D7817E);fontFamily=Times New Roman;fontStyle=1;fontSize=16;" parent="1" vertex="1">
          <mxGeometry x="2440" y="475" width="60" height="30" as="geometry" />
        </mxCell>
        <mxCell id="aQ-0biNOCQDJghbuDn7b-24" value="Carga" style="text;html=1;align=center;verticalAlign=middle;whiteSpace=wrap;rounded=0;fontColor=light-dark(#1F77B4,#D7817E);fontFamily=Times New Roman;fontStyle=1;fontSize=16;" parent="1" vertex="1">
          <mxGeometry x="2570" y="475" width="60" height="30" as="geometry" />
        </mxCell>
        <mxCell id="aQ-0biNOCQDJghbuDn7b-27" value="" style="endArrow=none;html=1;rounded=0;strokeWidth=3;strokeColor=light-dark(#1F77B4,#D7817E);" parent="1" edge="1">
          <mxGeometry width="50" height="50" relative="1" as="geometry">
            <mxPoint x="1980" y="490" as="sourcePoint" />
            <mxPoint x="1980" y="340" as="targetPoint" />
          </mxGeometry>
        </mxCell>
        <mxCell id="aQ-0biNOCQDJghbuDn7b-28" value="" style="endArrow=none;html=1;rounded=0;strokeWidth=3;strokeColor=light-dark(#1F77B4,#D7817E);" parent="1" edge="1">
          <mxGeometry width="50" height="50" relative="1" as="geometry">
            <mxPoint x="1980" y="340" as="sourcePoint" />
            <mxPoint x="2070" y="340" as="targetPoint" />
          </mxGeometry>
        </mxCell>
        <mxCell id="aQ-0biNOCQDJghbuDn7b-29" value="" style="endArrow=none;html=1;rounded=0;strokeWidth=3;strokeColor=light-dark(#1F77B4,#D7817E);" parent="1" edge="1">
          <mxGeometry width="50" height="50" relative="1" as="geometry">
            <mxPoint x="1980" y="490" as="sourcePoint" />
            <mxPoint x="2070" y="490" as="targetPoint" />
          </mxGeometry>
        </mxCell>
        <mxCell id="aQ-0biNOCQDJghbuDn7b-30" value="" style="endArrow=none;html=1;rounded=0;strokeWidth=3;strokeColor=light-dark(#1F77B4,#D7817E);" parent="1" edge="1">
          <mxGeometry width="50" height="50" relative="1" as="geometry">
            <mxPoint x="2070" y="490" as="sourcePoint" />
            <mxPoint x="2070" y="340" as="targetPoint" />
          </mxGeometry>
        </mxCell>
        <mxCell id="aQ-0biNOCQDJghbuDn7b-31" value="Ref" style="text;html=1;align=center;verticalAlign=middle;whiteSpace=wrap;rounded=0;fontColor=light-dark(#1F77B4,#D7817E);fontFamily=Times New Roman;fontStyle=1;fontSize=16;" parent="1" vertex="1">
          <mxGeometry x="1990" y="460" width="60" height="30" as="geometry" />
        </mxCell>
        <mxCell id="EVI6PqNJ_zM_HPmSKdid-1" value="" style="endArrow=none;html=1;rounded=0;strokeWidth=3;strokeColor=light-dark(#1F77B4,#D7817E);" parent="1" edge="1">
          <mxGeometry width="50" height="50" relative="1" as="geometry">
            <mxPoint x="3620" y="460" as="sourcePoint" />
            <mxPoint x="3620" y="320" as="targetPoint" />
          </mxGeometry>
        </mxCell>
        <mxCell id="EVI6PqNJ_zM_HPmSKdid-2" value="" style="endArrow=none;html=1;rounded=0;strokeWidth=3;strokeColor=light-dark(#1F77B4,#D7817E);" parent="1" edge="1">
          <mxGeometry width="50" height="50" relative="1" as="geometry">
            <mxPoint x="3440" y="320" as="sourcePoint" />
            <mxPoint x="3620" y="320" as="targetPoint" />
          </mxGeometry>
        </mxCell>
        <mxCell id="EVI6PqNJ_zM_HPmSKdid-4" value="" style="endArrow=none;html=1;rounded=0;strokeWidth=3;strokeColor=light-dark(#1F77B4,#D7817E);" parent="1" edge="1">
          <mxGeometry width="50" height="50" relative="1" as="geometry">
            <mxPoint x="3310" y="460" as="sourcePoint" />
            <mxPoint x="3620" y="460" as="targetPoint" />
          </mxGeometry>
        </mxCell>
        <mxCell id="EVI6PqNJ_zM_HPmSKdid-5" value="" style="endArrow=none;html=1;rounded=0;strokeWidth=3;strokeColor=light-dark(#1F77B4,#D7817E);" parent="1" edge="1">
          <mxGeometry width="50" height="50" relative="1" as="geometry">
            <mxPoint x="3310" y="460" as="sourcePoint" />
            <mxPoint x="3310" y="280" as="targetPoint" />
          </mxGeometry>
        </mxCell>
        <mxCell id="EVI6PqNJ_zM_HPmSKdid-6" value="" style="endArrow=none;html=1;rounded=0;strokeWidth=3;strokeColor=light-dark(#1F77B4,#D7817E);" parent="1" edge="1">
          <mxGeometry width="50" height="50" relative="1" as="geometry">
            <mxPoint x="3310" y="280" as="sourcePoint" />
            <mxPoint x="3410" y="280" as="targetPoint" />
          </mxGeometry>
        </mxCell>
        <mxCell id="EVI6PqNJ_zM_HPmSKdid-7" value="" style="endArrow=none;html=1;rounded=0;strokeWidth=3;strokeColor=light-dark(#1F77B4,#D7817E);" parent="1" edge="1">
          <mxGeometry width="50" height="50" relative="1" as="geometry">
            <mxPoint x="3410" y="320" as="sourcePoint" />
            <mxPoint x="3410" y="280" as="targetPoint" />
          </mxGeometry>
        </mxCell>
        <mxCell id="EVI6PqNJ_zM_HPmSKdid-8" value="" style="endArrow=none;html=1;rounded=0;strokeWidth=3;strokeColor=light-dark(#1F77B4,#D7817E);" parent="1" edge="1">
          <mxGeometry width="50" height="50" relative="1" as="geometry">
            <mxPoint x="3410" y="320" as="sourcePoint" />
            <mxPoint x="3442" y="320" as="targetPoint" />
          </mxGeometry>
        </mxCell>
        <mxCell id="EVI6PqNJ_zM_HPmSKdid-9" value="Regulador de corriente" style="text;html=1;align=center;verticalAlign=middle;whiteSpace=wrap;rounded=0;fontColor=light-dark(#1F77B4,#D7817E);fontFamily=Times New Roman;fontStyle=1;fontSize=16;" parent="1" vertex="1">
          <mxGeometry x="3412.85" y="380" width="85.7" height="30" as="geometry" />
        </mxCell>
        <mxCell id="tRzqNYrV92qwtdeMol7W-1" value="" style="endArrow=none;html=1;rounded=0;strokeWidth=3;strokeColor=light-dark(#1F77B4,#D7817E);" edge="1" parent="1">
          <mxGeometry width="50" height="50" relative="1" as="geometry">
            <mxPoint x="1420" y="457.5" as="sourcePoint" />
            <mxPoint x="1720" y="457.5" as="targetPoint" />
          </mxGeometry>
        </mxCell>
        <mxCell id="tRzqNYrV92qwtdeMol7W-2" value="" style="endArrow=none;html=1;rounded=0;strokeWidth=3;strokeColor=light-dark(#1F77B4,#D7817E);" edge="1" parent="1">
          <mxGeometry width="50" height="50" relative="1" as="geometry">
            <mxPoint x="1720" y="457.5" as="sourcePoint" />
            <mxPoint x="1720" y="297.5" as="targetPoint" />
          </mxGeometry>
        </mxCell>
        <mxCell id="tRzqNYrV92qwtdeMol7W-3" value="" style="endArrow=none;html=1;rounded=0;strokeWidth=3;strokeColor=light-dark(#1F77B4,#D7817E);" edge="1" parent="1">
          <mxGeometry width="50" height="50" relative="1" as="geometry">
            <mxPoint x="1420" y="457.5" as="sourcePoint" />
            <mxPoint x="1420" y="277.5" as="targetPoint" />
          </mxGeometry>
        </mxCell>
        <mxCell id="tRzqNYrV92qwtdeMol7W-4" value="" style="endArrow=none;html=1;rounded=0;strokeWidth=3;strokeColor=light-dark(#1F77B4,#D7817E);" edge="1" parent="1">
          <mxGeometry width="50" height="50" relative="1" as="geometry">
            <mxPoint x="1420" y="277.5" as="sourcePoint" />
            <mxPoint x="1520" y="277.5" as="targetPoint" />
          </mxGeometry>
        </mxCell>
        <mxCell id="tRzqNYrV92qwtdeMol7W-5" value="" style="endArrow=none;html=1;rounded=0;strokeWidth=3;strokeColor=light-dark(#1F77B4,#D7817E);" edge="1" parent="1">
          <mxGeometry width="50" height="50" relative="1" as="geometry">
            <mxPoint x="1519.45" y="297.5" as="sourcePoint" />
            <mxPoint x="1720" y="297.5" as="targetPoint" />
          </mxGeometry>
        </mxCell>
        <mxCell id="tRzqNYrV92qwtdeMol7W-6" value="" style="endArrow=none;html=1;rounded=0;strokeWidth=3;strokeColor=light-dark(#1F77B4,#D7817E);" edge="1" parent="1">
          <mxGeometry width="50" height="50" relative="1" as="geometry">
            <mxPoint x="1519.45" y="297.5" as="sourcePoint" />
            <mxPoint x="1519.45" y="277.5" as="targetPoint" />
          </mxGeometry>
        </mxCell>
        <mxCell id="tRzqNYrV92qwtdeMol7W-7" value="Foldback" style="text;html=1;align=center;verticalAlign=middle;whiteSpace=wrap;rounded=0;fontColor=light-dark(#1F77B4,#D7817E);fontFamily=Times New Roman;fontStyle=1;fontSize=16;" vertex="1" parent="1">
          <mxGeometry x="1567" y="407.5" width="60" height="30" as="geometry" />
        </mxCell>
      </root>
    </mxGraphModel>
  </diagram>
</mxfile>
